<?xml version="1.0" standalone="no"?>
<!DOCTYPE svg PUBLIC "-//W3C//DTD SVG 20010904//EN" "http://www.w3.org/TR/2001/REC-SVG-20010904/DTD/svg10.dtd">
<!-- Created using Krita: https://krita.org -->
<svg xmlns="http://www.w3.org/2000/svg" 
    xmlns:xlink="http://www.w3.org/1999/xlink"
    xmlns:krita="http://krita.org/namespaces/svg/krita"
    xmlns:sodipodi="http://sodipodi.sourceforge.net/DTD/sodipodi-0.dtd"
    width="240pt"
    height="240pt"
    viewBox="0 0 240 240">
<defs/>
<path id="shape0" transform="translate(21.4799997740605, 98.0914273337433)" fill="#4b3a1f" fill-rule="evenodd" stroke="#000000" stroke-width="2.4" stroke-linecap="square" stroke-linejoin="bevel" d="M0 9.90857L95.04 44.2286L198.3 37.2686L80.7 0.00857143C79.18 -0.191429 52.28 3.10857 0 9.90857Z" sodipodi:nodetypes="ccccc"/><path id="shape1" transform="translate(20.5799991040446, 107.939995435682)" fill="#47371f" fill-rule="evenodd" stroke="#000000" stroke-width="2.4" stroke-linecap="square" stroke-linejoin="bevel" d="M1.53 0C1.02 23.76 0.51 47.52 0 71.28L94.86 106.56L95.94 34.23C96.48 33.85 65.01 22.44 1.53 0Z" sodipodi:nodetypes="ccccc"/><path id="shape2" transform="translate(115.649991659192, 135.104990248923)" fill="#43341c" fill-rule="evenodd" stroke="#000000" stroke-width="2.4" stroke-linecap="square" stroke-linejoin="bevel" d="M103.86 71.955L103.5 0L1.53 6.885L0 79.155C0.12 79.755 34.74 77.355 103.86 71.955Z" sodipodi:nodetypes="ccccc"/><path id="shape3" transform="translate(24.239998251786, 98.1599987356267)" fill="#cbcd16" fill-rule="evenodd" stroke="#000000" stroke-width="1.2" stroke-linecap="square" stroke-linejoin="bevel" d="M12 10.92L77.28 3.72L176.28 34.44L92.64 38.76L92.4 43.8L194.04 36.84L77.16 0L0 9.83999L92.64 43.8L92.4 38.88C91.76 38.48 64.96 29.16 12 10.92Z" sodipodi:nodetypes="ccccccccccc"/><path id="shape4" transform="translate(20.9699984983516, 109.259992120062)" fill="#cbcd16" fill-rule="evenodd" stroke="#000000" stroke-width="1.2" stroke-linecap="square" stroke-linejoin="bevel" d="M5.37 5.13L90.99 35.7L90.39 98.7L4.32 66.15L0 69.57L94.77 105.12L95.55 33.42L1.74 0L0.03 68.94L4.35 65.94C4.23 65.88 4.57 45.61 5.37 5.13Z" sodipodi:nodetypes="ccccccccccc"/><path id="shape5" transform="translate(116.279995079189, 136.01999423309)" fill="#cbcd16" fill-rule="evenodd" stroke="#000000" stroke-width="1.2" stroke-linecap="square" stroke-linejoin="bevel" d="M5.94 11.67L98.28 5.82L98.46 66.48L5.94 72.96L0 78.54L103.02 71.1L103.14 0L1.5 6.72L0.18 78L5.76 72.96C5.76 73.98 5.82 53.55 5.94 11.67Z" sodipodi:nodetypes="ccccccccccc"/><path id="shape6" transform="translate(111.119998609193, 207.719997400121)" fill="none" stroke="#000000" stroke-width="1.2" stroke-linecap="square" stroke-linejoin="bevel" d="M0 0L4.5 6.6" sodipodi:nodetypes="cc"/><path id="shape7" transform="translate(111.479998604687, 142.559998215682)" fill="none" stroke="#000000" stroke-width="1.2" stroke-linecap="square" stroke-linejoin="bevel" d="M0 2.52L5.4 0L10.92 5.16" sodipodi:nodetypes="ccc"/><path id="shape8" transform="translate(22.079999723641, 108.23999864524)" fill="none" stroke="#000000" stroke-width="1.2" stroke-linecap="square" stroke-linejoin="bevel" d="M4.32 6.12L0 0" sodipodi:nodetypes="cc"/><path id="shape9" transform="translate(24.9599996875941, 107.759998651248)" fill="none" stroke="#000000" stroke-width="1.2" stroke-linecap="square" stroke-linejoin="bevel" d="M0 0L11.64 1.32" sodipodi:nodetypes="cc"/><path id="shape10" transform="translate(101.399998730851, 97.5599987789136)" fill="none" stroke="#000000" stroke-width="1.2" stroke-linecap="square" stroke-linejoin="bevel" d="M0 4.08L0.12 0" sodipodi:nodetypes="cc"/><path id="shape11" transform="translate(199.679985598899, 132.239990462732)" fill="none" stroke="#000000" stroke-width="1.2" stroke-linecap="square" stroke-linejoin="bevel" d="M0 0L18.12 2.64" sodipodi:nodetypes="cc"/><path id="shape12" transform="translate(214.439990925204, 135.839994251445)" fill="none" stroke="#000000" stroke-width="1.2" stroke-linecap="square" stroke-linejoin="bevel" d="M0 6L5.04 0" sodipodi:nodetypes="cc"/><path id="shape13" transform="translate(214.319990930284, 201.959991453341)" fill="none" stroke="#000000" stroke-width="1.2" stroke-linecap="square" stroke-linejoin="bevel" d="M0 0L4.92 5.04" sodipodi:nodetypes="cc"/><path id="shape14" transform="translate(45.2347675590365, 121.919998474074)" fill="#cbcd16" fill-rule="evenodd" stroke="#000000" stroke-width="1.2" stroke-linecap="square" stroke-linejoin="bevel" d="M0.00523187 0C-0.0441833 2.21733 0.231149 4.46417 1.92523 6.84C4.71942 7.33231 7.24113 7.27965 11.0956 9.89258L13.0403 13.7125C14.0734 14.8262 15.6002 15.1994 17.2686 15.3602L24.8072 14.2835C30.2425 15.1718 31.7036 16.8053 34.8652 18.12C41.5915 15.3799 40.2636 15.3696 42.0652 14.1C41.9452 14.3 27.9252 9.6 0.00523187 0Z" sodipodi:nodetypes="ccccccccc"/><ellipse id="shape15" transform="translate(60.8475000839292, 129.337500079003)" rx="1.87124859718409" ry="1.90499714680075" cx="1.87124859718409" cy="1.90499714680075" fill="#000000" fill-rule="evenodd" stroke="#cbcd16" stroke-width="1.2" stroke-linecap="square" stroke-linejoin="bevel"/><path id="shape16" transform="matrix(0.99096134777907 -0.134147706681446 0.134147706681446 0.99096134777907 60.0931136201752 132.316944331032)" fill="#000000" fill-rule="evenodd" stroke="#000000" stroke-width="1.2" stroke-linecap="square" stroke-linejoin="bevel" d="M2.50303 0L0 1.34915L3.20617 2.56253C3.33741 2.72918 3.10303 1.875 2.50303 0Z" sodipodi:nodetypes="cccc"/><path id="shape17" transform="translate(134.339998179162, 146.999998160188)" fill="none" stroke="#000000" stroke-width="1.2" stroke-linecap="square" stroke-linejoin="bevel" d="M0.96 0L0 60.84" sodipodi:nodetypes="cc"/><path id="shape18" transform="translate(146.699998024468, 146.759998163192)" fill="none" stroke="#000000" stroke-width="1.2" stroke-linecap="square" stroke-linejoin="bevel" d="M1.08 0L0 60.36" sodipodi:nodetypes="cc"/><path id="shape19" transform="translate(159.29999786677, 145.199998182716)" fill="none" stroke="#000000" stroke-width="1.2" stroke-linecap="square" stroke-linejoin="bevel" d="M0.72 0L0 61.2" sodipodi:nodetypes="cc"/><path id="shape20" transform="translate(171.179997718083, 145.079998184218)" fill="none" stroke="#000000" stroke-width="1.2" stroke-linecap="square" stroke-linejoin="bevel" d="M0.84 0L0 59.52" sodipodi:nodetypes="cc"/><path id="shape21" transform="translate(182.339997578408, 144.479998191728)" fill="none" stroke="#000000" stroke-width="1.2" stroke-linecap="square" stroke-linejoin="bevel" d="M0.84 0L0 60.12" sodipodi:nodetypes="cc"/><path id="shape22" transform="translate(194.099997431222, 143.279998206747)" fill="none" stroke="#000000" stroke-width="1.2" stroke-linecap="square" stroke-linejoin="bevel" d="M0.48 0L0 60.6" sodipodi:nodetypes="cc"/><path id="shape23" transform="translate(204.899997296053, 142.559998215758)" fill="none" stroke="#000000" stroke-width="1.2" stroke-linecap="square" stroke-linejoin="bevel" d="M0.24 0L0 60.24" sodipodi:nodetypes="cc"/><path id="shape24" transform="translate(26.9399980642298, 127.499991054993)" fill="none" stroke="#000000" stroke-width="1.2" stroke-linecap="square" stroke-linejoin="bevel" d="M0 0L84.24 28.08" sodipodi:nodetypes="cc"/><path id="shape25" transform="translate(26.3999980978104, 137.489990374743)" fill="none" stroke="#000000" stroke-width="1.2" stroke-linecap="square" stroke-linejoin="bevel" d="M0 0L85.02 29.73" sodipodi:nodetypes="cc"/><path id="shape26" transform="translate(25.8599981421198, 147.839989588064)" fill="none" stroke="#000000" stroke-width="1.2" stroke-linecap="square" stroke-linejoin="bevel" d="M0 0L85.89 30.9" sodipodi:nodetypes="cc"/><path id="shape27" transform="translate(25.9199981377927, 157.799988869746)" fill="none" stroke="#000000" stroke-width="1.2" stroke-linecap="square" stroke-linejoin="bevel" d="M0 0L85.08 30.57" sodipodi:nodetypes="cc"/><path id="shape28" transform="translate(24.9599989473179, 168.719992985269)" fill="none" stroke="#000000" stroke-width="1.2" stroke-linecap="square" stroke-linejoin="bevel" d="M0 0L85.56 29.64" sodipodi:nodetypes="cc"/><path id="shape29" transform="translate(22.0199990681477, 50.0399978823847)" fill="#43341c" fill-rule="evenodd" stroke="#000000" stroke-width="2.4" stroke-linecap="square" stroke-linejoin="bevel" d="M0 57.12L95.25 90.54C106.141 45.4806 122.801 22.9006 145.23 22.8C150.324 22.7771 153.155 23.0128 153.723 23.5068C157.088 21.8531 135.676 17.1675 89.49 9.45C73.0244 6.3134 56.8544 3.1634 40.98 0C18.94 1.36 5.28 20.4 0 57.12Z" sodipodi:nodetypes="cczcccc"/><path id="shape30" transform="translate(116.759995026716, 71.8265670873625)" fill="#47371f" fill-rule="evenodd" stroke="#000000" stroke-width="2.4" stroke-linecap="square" stroke-linejoin="bevel" d="M0 70.7334L102.48 63.2934C96.6644 38.3517 90.1744 21.9617 83.01 14.1234C72.2634 2.36602 61.5202 -1.11037 49.74 0.29343C37.9598 1.69723 18.63 13.1034 10.35 34.3434C2.09886 55.5786 3.4327 55.6413 0 70.7334Z" sodipodi:nodetypes="cczzcc"/><path id="shape31" transform="translate(116.924998590206, 71.9235567153828)" fill="#cbcd16" fill-rule="evenodd" stroke="#000000" stroke-width="1.2" stroke-linecap="square" stroke-linejoin="bevel" d="M5.325 67.0064L97.605 60.4964C91.9985 42.0208 87.1585 29.6208 83.085 23.2964C76.9747 13.81 71.0087 8.18765 60.045 5.77644C49.0813 3.36524 36.0398 11.9691 29.685 17.0564C23.3302 22.1437 16.7082 35.5671 14.085 42.3164C12.641 46.0317 10.6733 52.3026 8.18189 61.129C7.68958 64.3355 7.04229 66.2846 6.24 66.9764L0 71.5364C1.15908 66.279 2.65408 60.039 4.485 52.8164C7.23137 41.9826 16.7125 20.9327 22.44 15.9464C23.186 15.297 24.0838 14.0973 24.6148 13.5956C28.1609 10.2453 27.3023 10.8264 28.6035 10.0331C31.1908 6.44376 38.7299 3.25124 41.8672 2.67751C47.0462 0.354239 52.7936 -0.471307 59.625 0.256442C68.0688 1.15596 76.3288 6.17596 84.405 15.3164C89.6253 22.9056 92.5653 28.3056 93.225 31.5164C97.538 43.3285 100.108 51.3485 100.935 55.5764C101.762 59.8044 102.372 62.6844 102.765 64.2164L0.135 71.5064C0.315 71.1464 2.045 69.6464 5.325 67.0064Z" sodipodi:nodetypes="cczzzzccczzccczcczccc"/><path id="shape32" transform="translate(21.3599991148574, 49.313621723721)" fill="#cbcd16" fill-rule="evenodd" stroke="#000000" stroke-width="1.2" stroke-linecap="square" stroke-linejoin="bevel" d="M41.64 3.24637C35.3098 4.86025 29.5098 7.74025 24.24 11.8864C16.3352 18.1056 10.7353 30.4777 7.8 42.1264C5.84315 49.8921 4.92315 54.2921 5.04 55.3264L92.52 85.0864C98.04 62.8664 103.26 48.7564 108.18 42.7564C115.56 33.7564 116.43 32.8564 123.99 27.6364C129.03 24.1564 134.4 21.4864 140.1 19.6264L150 21.5164C142.042 23.4693 135.802 25.5693 131.28 27.8164C124.497 31.187 111.917 43.335 105.54 58.5064C101.289 68.6207 98.2786 79.4807 96.51 91.0864L0 57.4564L0.975001 52.7014C3.19632 41.0244 5.34273 33.2619 7.41425 29.4136C10.5444 22.0728 12.9178 17.4732 14.5344 15.6147C17.7037 11.8503 19.4989 9.68747 19.92 9.12638C20.5517 8.28474 34.9073 -1.87574 42.24 0.306378C47.1285 1.76113 49.2285 2.20113 48.54 1.62638C46.9 1.82638 44.6 2.36638 41.64 3.24637Z" sodipodi:nodetypes="czzcczzcczzccccczzcc"/><path id="shape33" transform="translate(29.6999987431495, 94.3199960085475)" fill="none" stroke="#000000" stroke-width="1.2" stroke-linecap="square" stroke-linejoin="bevel" d="M0 0L87.12 26.82" sodipodi:nodetypes="cc"/><path id="shape34" transform="translate(32.3399986314295, 82.259996518905)" fill="none" stroke="#000000" stroke-width="1.2" stroke-linecap="square" stroke-linejoin="bevel" d="M0 0L89.61 23.58" sodipodi:nodetypes="cc"/><path id="shape35" transform="translate(37.4399972998078, 71.6399948332861)" fill="none" stroke="#000000" stroke-width="1.2" stroke-linecap="square" stroke-linejoin="bevel" d="M0 0L90.09 22.59" sodipodi:nodetypes="cc"/><path id="shape36" transform="translate(45.3599967286133, 61.9199955342975)" fill="none" stroke="#000000" stroke-width="1.2" stroke-linecap="square" stroke-linejoin="bevel" d="M0 0L91.08 21.6" sodipodi:nodetypes="cc"/><path id="shape37" transform="translate(56.8799958977849, 54.8999960405835)" fill="none" stroke="#000000" stroke-width="1.2" stroke-linecap="square" stroke-linejoin="bevel" d="M0 0L90.9 20.52" sodipodi:nodetypes="cc"/><path id="shape38" transform="translate(214.199984551796, 131.939990484426)" fill="none" stroke="#000000" stroke-width="1.2" stroke-linecap="square" stroke-linejoin="bevel" d="M0 0L5.4 3.78" sodipodi:nodetypes="cc"/><path id="shape39" transform="translate(113.519991812885, 134.159990324319)" fill="none" stroke="#000000" stroke-width="1.2" stroke-linecap="square" stroke-linejoin="bevel" d="M3.6 5.88L0 0" sodipodi:nodetypes="cc"/><path id="shape40" transform="translate(21.599998442198, 104.279992479278)" fill="none" stroke="#000000" stroke-width="1.2" stroke-linecap="square" stroke-linejoin="bevel" d="M0 2.28L4.44 0" sodipodi:nodetypes="cc"/><path id="shape41" transform="translate(139.019990150857, 97.3199927022988)" fill="none" stroke="#000000" stroke-width="1.2" stroke-linecap="square" stroke-linejoin="bevel" d="M0 40.08C0.52 29.76 0.44 10.32 0.96 0" sodipodi:nodetypes="cc"/><path id="shape42" transform="translate(149.519989187957, 86.759993785755)" fill="none" stroke="#000000" stroke-width="1.2" stroke-linecap="square" stroke-linejoin="bevel" d="M0.6 0L0 49.8" sodipodi:nodetypes="cc"/><path id="shape43" transform="translate(159.719988416567, 80.3999942265591)" fill="none" stroke="#000000" stroke-width="1.2" stroke-linecap="square" stroke-linejoin="bevel" d="M0.84 0L0 55.56" sodipodi:nodetypes="cc"/><path id="shape44" transform="translate(170.639987614708, 77.6399944005772)" fill="none" stroke="#000000" stroke-width="1.2" stroke-linecap="square" stroke-linejoin="bevel" d="M0.48 0L0 57.72" sodipodi:nodetypes="cc"/><path id="shape45" transform="translate(181.319986862344, 79.0799942716899)" fill="none" stroke="#000000" stroke-width="1.2" stroke-linecap="square" stroke-linejoin="bevel" d="M0 0L0.24 54.96" sodipodi:nodetypes="cc"/><path id="shape46" transform="translate(191.279986133297, 84.8399937954799)" fill="none" stroke="#000000" stroke-width="1.2" stroke-linecap="square" stroke-linejoin="bevel" d="M0 0L0.72 48.96" sodipodi:nodetypes="cc"/><path id="shape47" transform="translate(201.959985363052, 98.3999926565955)" fill="none" stroke="#000000" stroke-width="1.2" stroke-linecap="square" stroke-linejoin="bevel" d="M0 0C0.2 8.6 0.64 25.72 0.84 34.32" sodipodi:nodetypes="cc"/>
</svg>
