<?xml version="1.0" standalone="no"?>
<!DOCTYPE svg PUBLIC "-//W3C//DTD SVG 20010904//EN" "http://www.w3.org/TR/2001/REC-SVG-20010904/DTD/svg10.dtd">
<!-- Created using Krita: https://krita.org -->
<svg xmlns="http://www.w3.org/2000/svg" 
    xmlns:xlink="http://www.w3.org/1999/xlink"
    xmlns:krita="http://krita.org/namespaces/svg/krita"
    xmlns:sodipodi="http://sodipodi.sourceforge.net/DTD/sodipodi-0.dtd"
    width="240pt"
    height="240pt"
    viewBox="0 0 240 240">
<defs/>
<path id="shape0" transform="translate(1.94999994767378, 7.24194626622897)" fill="#0a8400" stroke="#076200" stroke-width="2.4" stroke-linecap="square" stroke-linejoin="bevel" d="M2.205 39.4231C-0.315 32.2231 -0.675 25.6831 1.125 19.8031C3.825 10.9831 10.125 1.62306 21.465 3.42306C32.805 5.22306 38.205 9.36314 44.505 10.2631C50.805 11.1631 59.985 12.6031 62.865 8.82306C65.745 5.04306 65.925 2.16306 76.545 0.363053C87.165 -1.43694 97.425 3.78306 106.605 8.82306C115.785 13.8631 121.005 17.1031 134.685 17.6431C148.365 18.1831 154.125 18.1831 163.125 16.2031C172.125 14.2231 182.925 9.72306 192.285 16.0231C201.645 22.3231 207.405 28.4431 207.945 37.8031C208.485 47.1631 206.865 63.3631 203.265 71.4631C199.665 79.5631 203.085 77.4031 204.705 86.2231C206.325 95.0431 207.945 94.6831 206.865 101.163C205.785 107.643 208.17 108.678 204.705 110.028C201.24 111.378 200.34 105.528 201.15 108.138C201.96 110.748 205.155 111.693 204.525 115.743C203.895 119.793 200.835 126.543 200.385 131.853C199.935 137.163 198.765 148.773 200.025 152.283C201.285 155.793 200.775 158.853 201.615 160.323C202.455 161.793 203.685 164.103 206.655 165.933C209.625 167.763 213.525 168.933 215.145 171.723C216.765 174.513 216.855 175.953 219.015 176.853C221.175 177.753 226.035 177.033 228.285 179.013C230.535 180.993 234.495 184.233 235.035 188.553C235.575 192.873 237.405 200.493 235.695 202.833C233.985 205.173 231.375 202.563 227.655 206.103C223.935 209.643 220.815 206.253 217.035 208.533C213.255 210.813 211.005 210.333 206.415 210.153C201.825 209.973 198.135 211.953 194.985 213.213C191.835 214.473 187.875 216.723 181.575 216.453C175.275 216.183 171.045 217.023 163.665 214.983C156.285 212.943 141.525 209.643 134.325 210.243C127.125 210.843 116.685 212.343 113.865 213.243C111.045 214.143 93.525 218.868 88.35 218.418C83.175 217.968 76.305 218.763 70.245 216.483C64.185 214.203 56.085 213.663 48.345 212.223C40.605 210.783 38.415 210.018 33.6 210.918C28.785 211.818 26.3752 213.153 17.55 212.658C8.72479 212.163 6.84 208.863 4.2 202.983C1.56 197.103 0.045 194.043 0.315 184.053C0.585 174.063 5.325 158.943 10.605 153.183C15.885 147.423 23.025 141.003 30.885 139.803C38.745 138.603 48.525 139.323 55.785 140.463C63.045 141.603 76.665 143.943 80.445 143.103C84.225 142.263 91.725 141.663 96.825 136.923C101.925 132.183 103.725 125.193 102.465 122.313C101.205 119.433 98.055 114.123 95.355 113.043C92.655 111.963 84.465 105.843 81.045 103.773C77.625 101.703 66.465 96.9331 60.525 97.9231C54.585 98.9131 50.715 100.353 43.695 103.053C36.675 105.753 28.755 109.263 20.565 107.283C12.375 105.303 9.09 104.448 6.93 99.2281C4.77 94.0081 3.735 87.0331 5.715 78.8431C7.695 70.6531 8.775 59.4031 7.335 55.1731C5.895 50.9431 5.895 50.9431 2.205 39.4231Z" sodipodi:nodetypes="czzzzzzzzzzzzzzzzzzzzzzzzzzzzzzzzzzzzzzzzzzzzzzzzzzzzzcc"/><path id="shape1" transform="translate(193.825999563731, 73.9799998295885)" fill="#33a727" fill-rule="evenodd" stroke="#30a824" stroke-width="2.4" stroke-linecap="square" stroke-linejoin="bevel" d="M0.484 2.28C2.824 3.94 4.144 5.37 4.444 6.57C4.894 8.37 3.769 11.025 5.794 9.36C7.819 7.695 9.214 1.65 8.404 0.975C7.864 0.525 7.294 0.2 6.694 0C5.5268 2.03169 4.1918 2.54169 2.689 1.53C1.18619 0.518313 0.466195 0.713313 0.529 2.115C-0.161 1.775 -0.176 1.83 0.484 2.28Z" sodipodi:nodetypes="czzzczcc"/><path id="shape2" transform="translate(182.252136801056, 83.3699948691166)" fill="#30a824" fill-rule="evenodd" stroke="#30ac24" stroke-width="2.4" stroke-linecap="square" stroke-linejoin="bevel" d="M2.74286 1.41C0.342857 10.35 -0.482143 15.3 0.267857 16.26C1.39286 17.7 3.44786 16.65 3.44786 17.79C3.44786 18.93 3.72855 22.5364 5.09786 22.41C6.46717 22.2836 8.27947 21.872 9.83786 20.76C11.3963 19.648 10.9179 13.62 10.0179 10.62C9.41786 8.62 9.30786 5.46 9.68785 1.14C9.44785 0.38 9.26785 0 9.14785 0C8.96785 0 4.28786 2.64 2.74286 1.41Z" sodipodi:nodetypes="czzzzzccc"/><path id="shape3" transform="translate(172.602236647734, 77.2799975260132)" fill="#30ac24" fill-rule="evenodd" stroke="#2fac23" stroke-width="2.4" stroke-linecap="square" stroke-linejoin="bevel" d="M3.39276 0C6.35276 4.4 8.73276 6.555 10.5328 6.465C13.2328 6.33 6.63276 11.1 4.83276 11.415C3.03276 11.73 -1.78224 11.91 0.692758 6.105C3.16776 0.3 2.44776 0.54 3.39276 0Z" sodipodi:nodetypes="czzcc"/><path id="shape4" transform="translate(165.704989758939, 70.3320360574317)" fill="none" stroke="#2fac23" stroke-width="2.4" stroke-linecap="square" stroke-linejoin="bevel" d="M0 1.51796C7.57 -0.94204 11.155 -0.41204 10.755 3.10796C10.155 8.38796 6.915 17.6564 8.655 18.258C10.395 18.8595 11.655 17.3154 13.515 16.008C15.375 14.7005 21.675 11.088 20.835 14.868C19.995 18.648 16.875 29.028 18.375 28.728C19.875 28.428 23.115 27.828 22.875 30.048C22.635 32.268 24.315 36.048 25.155 32.688C25.715 30.448 25.615 26.728 24.855 21.528C24.775 15.608 25.095 12.528 25.815 12.288" sodipodi:nodetypes="czzzzzzzcc"/><path id="shape5" transform="matrix(1 0.00793650793650954 2.44929359829471e-16 1 204.359987348438 111.119881840345)" fill="#2fac23" fill-rule="evenodd" stroke="#30ad24" stroke-width="2.4" stroke-linecap="square" stroke-linejoin="bevel" d="M0 2.21326C1.75904 0.182786 2.56127 -0.450602 2.40668 0.313103C2.1748 1.45866 2.69524 3.43208 2.09391 3.79116C1.49258 4.15023 0.159176 5.08586 0 2.21326Z" sodipodi:nodetypes="czcc"/><path id="shape6" transform="translate(165.344989749479, 136.169991548499)" fill="#30ad24" fill-rule="evenodd" stroke="#33b227" stroke-width="2.4" stroke-linecap="square" stroke-linejoin="bevel" d="M0 0C3.41204 1.92587 5.24204 2.70587 5.49 2.34C5.86194 1.7912 8.05302 8.82632 8.355 9.765C8.65698 10.7037 6.94877 16.6606 3.495 12.465C1.335 7.335 0.855 6.615 0 0Z" sodipodi:nodetypes="czzcc"/><path id="shape7" transform="translate(152.699999680429, 131.309999687681)" fill="#33b227" fill-rule="evenodd" stroke="#30b224" stroke-width="2.4" stroke-linecap="square" stroke-linejoin="bevel" d="M0 0C2.28148 2.01316 4.20148 2.66316 5.76 1.95C6.35522 1.67764 7.56522 1.09763 9.39 0.209996C9.94798 0.294737 9.43798 1.27474 7.86 3.15C7.5 6.51 6.72 7.97 5.52 7.53C3.72 6.87 2.64 7.2 0 0Z" sodipodi:nodetypes="czcccc"/><path id="shape8" transform="translate(146.459999662616, 128.824459749158)" fill="none" stroke="#30b224" stroke-width="2.4" stroke-linecap="square" stroke-linejoin="bevel" d="M0 4.13554C1.68 0.0955399 3.42 -0.984459 5.22 0.895541C7.92 3.71554 9.42 10.5555 10.98 10.3155C12.54 10.0755 12.66 7.25554 13.8 5.75554C14.94 4.25554 15 0.595541 17.58 3.77554C20.16 6.95554 22.26 18.8262 23.94 19.9155C25.62 21.0049 27.3521 22.8401 25.74 19.5555C24.1279 16.271 24.7819 6.36529 27.48 8.21554" sodipodi:nodetypes="czzzzzzc"/><path id="shape9" transform="translate(195.01498796719, 188.965747029844)" fill="none" stroke="#30b224" stroke-width="2.4" stroke-linecap="square" stroke-linejoin="bevel" d="M0 5.62924C0.23 0.29924 1.685 -1.24576 4.365 0.99424C8.385 4.35424 11.115 6.22924 11.955 4.30924C12.515 3.02924 12.83 1.67424 12.9 0.24424" sodipodi:nodetypes="czzc"/><path id="shape10" transform="translate(118.079992689868, 167.250065189706)" fill="#30b224" fill-rule="evenodd" stroke="#2fb223" stroke-width="2.4" stroke-linecap="square" stroke-linejoin="bevel" d="M0 6.65993C4.51474 6.51969 7.04474 4.78969 7.59 1.46993C8.40789 -3.50973 11.6351 5.60993 11.88 7.43993C12.1249 9.26993 11.55 13.578 8.7 15.1199C5.85 15.1199 4.71 15.7499 0 6.65993Z" sodipodi:nodetypes="czzcc"/><path id="shape11" transform="translate(107.58749979328, 176.834999592629)" fill="#2fb223" fill-rule="evenodd" stroke="#2cb41f" stroke-width="2.4" stroke-linecap="square" stroke-linejoin="bevel" d="M0 0.99C2.39 3.01 4.2 3.6375 5.43 2.8725C6.66 2.1075 7.8475 1.15 8.9925 0C11.1625 8.85999 11.9925 13.74 11.4825 14.64C10.7175 15.99 9.14249 18.825 6.75749 15.675C4.37249 12.525 4.05662 13.0937 0 0.99Z" sodipodi:nodetypes="czczcc"/><path id="shape12" transform="translate(96.6599968966333, 162.224994791603)" fill="none" stroke="#2cb41f" stroke-width="2.4" stroke-linecap="square" stroke-linejoin="bevel" d="M0 10.125C2.43 13.305 3.645 15.285 3.645 16.065C3.645 17.235 4.5 19.26 5.13 18.09C5.76 16.92 8.235 13.95 9.72 14.67C11.205 15.39 13.86 17.82 15.435 24.21C17.01 30.6 19.954 33.4096 21.465 31.05C22.4724 29.4769 21.8424 25.1419 19.575 18.045C19.935 13.305 20.805 11.25 22.185 11.88C24.255 12.825 25.56 16.605 26.415 17.775C27.27 18.945 28.8959 20.3835 31.05 17.01C33.2041 13.6365 32.265 11.565 31.095 8.955C29.925 6.345 29.115 0.63 30.78 0" sodipodi:nodetypes="czzzzzczzzzc"/><path id="shape13" transform="translate(5.56499998539174, 178.100644446195)" fill="none" stroke="#2cb41f" stroke-width="2.4" stroke-linecap="square" stroke-linejoin="bevel" d="M0.4875 1.20186C0.260115 3.35163 0.1625 5.24186 0 7.26185C1.36 2.24686 2.61 -0.170645 3.75 0.00935515C4.89 0.189355 5.865 1.16436 6.675 2.93436" sodipodi:nodetypes="cczc"/><path id="shape14" transform="translate(136.079995631, 70.4249977389269)" fill="none" stroke="#2cb41f" stroke-width="2.4" stroke-linecap="square" stroke-linejoin="bevel" d="M10.05 0C4.383 9.05401 1.593 16.499 1.68 22.335C1.767 28.171 2.487 42.531 3.84 65.415L5.64 98.775C5.37169 112.037 4.59169 119.477 3.3 121.095C2.00831 122.713 0.908305 129.333 0 140.955" sodipodi:nodetypes="czcczc"/><path id="shape15" transform="translate(125.074872036162, 58.6067620838364)" fill="#2cb41f" fill-rule="evenodd" stroke="#2ab01d" stroke-width="2.4" stroke-linecap="square" stroke-linejoin="bevel" d="M0.265124 7.09324C1.46512 16.2532 2.56512 21.4132 3.56512 22.5732C4.56512 23.7332 6.22512 26.5532 8.54512 31.0332L9.98512 32.4732L13.3451 21.7932C15.0935 15.0513 17.2421 12.9782 19.4651 11.7732C24.6251 8.73324 27.6851 7.33324 28.6451 7.57324C29.6051 7.81324 32.9051 6.97324 38.5451 5.05324C46.0142 2.93669 44.8542 1.39669 35.0651 0.433236C20.3815 -1.01194 24.5175 1.67574 21.6251 1.03324C18.7327 0.390736 19.4873 0.142659 14.4251 0.913236C9.36298 1.68381 6.26386 -0.793594 4.52512 2.89324C2.78639 6.58007 -0.576964 6.43846 0.085124 6.73324C0.745124 7.03324 -0.334876 7.27324 0.265124 7.09324Z" sodipodi:nodetypes="czcccczczzzzcc"/><path id="shape16" transform="translate(143.27999966991, 55.6270703221273)" fill="none" stroke="#2ab01d" stroke-width="2.4" stroke-linecap="square" stroke-linejoin="bevel" d="M52.32 3.17293C52 4.21293 51.52 4.17293 50.88 3.05293C49.92 1.37293 49.56 -1.02707 47.76 0.472928C45.96 1.97293 42.9 4.91293 38.76 3.95293C34.62 2.99293 21.06 5.21293 16.56 6.83293C12.06 8.45293 0.36 12.0529 0 13.2229" sodipodi:nodetypes="czzzzc"/><path id="shape17" transform="translate(196.854699562108, 55.6799982123302)" fill="#2ab01d" fill-rule="evenodd" stroke="#23b016" stroke-width="2.4" stroke-linecap="square" stroke-linejoin="bevel" d="M12.3653 0C9.69765 3.84902 7.52338 5.53224 5.8425 5.04968C4.16162 4.56711 2.21412 4.1047 0 3.66244C0.570588 4.1047 1.00529 4.75271 1.30412 5.60648C1.75235 6.88714 2.985 9.83822 6.23471 9.50414C9.48441 9.17005 9.6525 11.0075 10.2128 7.72235C10.7731 4.43719 11.9731 4.67719 12.3653 0Z" sodipodi:nodetypes="czczzcc"/><path id="shape18" transform="translate(43.3199999001973, 40.0502449190329)" fill="none" stroke="#23b016" stroke-width="2.4" stroke-linecap="square" stroke-linejoin="bevel" d="M0 1.52976C2.84 -0.710245 5 -0.490245 6.48 2.18976C8.7 6.20976 9.3 5.36976 13.14 5.12976C16.98 4.88976 32.79 5.26476 38.13 8.32476C43.47 11.3848 50.1 15.8098 52.62 16.2298C55.14 16.6498 70.32 21.3298 70.77 21.0598C71.22 20.7898 79.23 23.1598 81.6 21.9598C83.18 21.1598 87.4 20.3198 94.26 19.4398" sodipodi:nodetypes="czzzzzzc"/><path id="shape19" transform="translate(12.5249995978697, 28.6077761018315)" fill="none" stroke="#0fb400" stroke-width="3.6" stroke-linecap="square" stroke-linejoin="bevel" d="M0 2.06722C5.01 -0.372777 9.235 -0.652777 12.675 1.22722C17.835 4.04722 18.36 5.36722 17.82 8.42722C17.28 11.4872 17.655 10.5722 16.815 13.9322C15.975 17.2922 13.476 17.0933 16.875 20.6222C20.274 24.1512 24.1109 21.6561 25.455 21.1772C26.3511 20.858 28.2011 18.273 31.005 13.4222C29.8075 15.0899 28.9325 17.2699 28.38 19.9622C27.5513 24.0007 22.2363 27.2 20.625 26.0822C19.0137 24.9645 17.055 26.9672 16.605 23.8172C16.155 20.6672 17.8326 10.6114 17.07 14.9522C16.5616 17.8461 18.0066 20.9511 21.405 24.2672" sodipodi:nodetypes="cczzzzczzzzc"/><path id="shape20" transform="translate(3.65081048222022, 30.7503413366393)" fill="none" stroke="#27b51a" stroke-width="2.64" stroke-linecap="square" stroke-linejoin="bevel" d="M1.08208 0.187158C0.673695 2.74466 1.16629 3.63341 2.55986 2.85341C3.95343 2.07341 5.28339 1.27466 6.54976 0.457158C7.85632 -0.319222 7.88692 -0.106722 6.64155 1.09466C5.39619 2.29604 3.3126 4.41854 0.390782 7.46216C0.0398607 7.65216 -0.0747156 6.89216 0.0470526 5.18216C0.229705 2.61716 0.371768 -0.0828423 1.08208 0.187158Z" sodipodi:nodetypes="czczccc"/><path id="shape21" transform="translate(135.359991555598, 56.2799965157491)" fill="none" stroke="#075900" stroke-width="2.4" stroke-linecap="square" stroke-linejoin="bevel" d="M73.8 0C73.24 7.36 71.76 10.84 69.36 10.44C65.76 9.84 62.88 9.48 62.64 6.24C62.4 3 59.88 3.96 60.12 4.92C60.36 5.88 57.48 6 56.88 2.88C56.28 -0.24 54.96 5.88 50.16 5.64C45.36 5.4 39.96 4.2 33.72 6C27.48 7.8 10.56 11.04 7.68 16.08C4.8 21.12 -0.48 32.04 0.12 42.6C0.52 49.64 1.52 64.98 3.12 88.62C4.88001 110.88 4.89001 124.98 3.15001 130.92C1.41001 136.86 0.360005 144.32 0 153.3" sodipodi:nodetypes="czzzzzzzzczc"/><path id="shape22" transform="translate(3.23999989597399, 29.7313550169987)" fill="none" stroke="#075800" stroke-width="2.4" stroke-linecap="square" stroke-linejoin="bevel" d="M0 9.62865C4.64 4.58865 8.72 1.54865 12.24 0.508643C17.52 -1.05135 25.08 1.10865 26.16 5.18865C27.24 9.26865 23.28 13.5886 22.92 16.1086C22.56 18.6286 22.2 25.1086 26.04 26.4286C29.88 27.7486 34.32 29.1886 36.84 24.2686C38.52 20.9886 40.04 17.2286 41.4 12.9886C42.76 11.7886 44.04 11.9486 45.24 13.4686C47.04 15.7486 44.64 18.7486 52.08 17.7886C59.52 16.8286 72.84 17.3086 79.32 21.6286C85.8 25.9486 91.89 29.6686 96.93 30.1186C101.97 30.5686 116.37 36.8686 119.34 34.5286C122.31 32.1886 121.14 43.9786 124.47 49.5586C126.69 53.2786 128.94 57.4186 131.22 61.9786C131.484 65.1616 132.271 68.0832 131.67 71.6986L135 123.149C135.898 131.625 136.142 140.232 135.84 148.949L133.8 161.429C132.52 175.469 132 182.809 132.24 183.449" sodipodi:nodetypes="czzzzzczzzzzzcccccc"/><path id="shape23" transform="translate(3.83999976227003, 203.489987402168)" fill="#075a00" fill-rule="evenodd" stroke="#075a00" stroke-width="2.4" stroke-linecap="square" stroke-linejoin="bevel" d="M0 0C6.24 6.36 11.49 9.63 15.75 9.81C22.14 10.08 33.12 7.83 38.07 7.83C43.02 7.83 58.14 9.81 64.98 12.87C71.82 15.93 78.57 17.64 85.32 16.83C92.07 16.02 111.6 11.88 113.58 11.97C115.56 12.06 124.8 9.87001 131.88 9.99001C138.96 10.11 149.82 10.77 156.18 12.39C162.54 14.01 171.78 16.59 176.22 15.93C180.66 15.27 188.88 13.35 192.3 11.91C195.72 10.47 201.78 9.27001 204.255 9.72001C206.73 10.17 211.635 9.85501 212.265 9.27001C212.895 8.68501 215.145 7.56001 217.62 8.05501C220.095 8.55001 221.82 7.95 223.95 6.75C226.08 5.55 227.94 4.47 229.83 4.74C231.09 4.92 232.405 3.91 233.775 1.71C235.215 3.33 235.365 4.71001 234.225 5.85001C232.515 7.56001 230.085 7.56001 228.825 8.28001C227.565 9.00001 224.505 11.655 222.795 11.7C221.085 11.745 217.935 10.89 215.415 12.33C212.895 13.77 208.8 14.49 205.785 14.22C202.77 13.95 195.48 15.75 193.14 17.1C190.8 18.45 186.48 19.935 184.095 20.025C181.71 20.115 174.24 21.42 169.785 20.655C166.815 20.145 159.66 18.495 148.32 15.705C134.52 14.055 123.84 14.19 116.28 16.11C104.94 18.99 92.88 23.31 85.14 22.59C77.4 21.87 73.08 22.59 67.68 20.79C62.28 18.99 43.2 16.29 38.16 15.03C33.12 13.77 22.86 18.09 18.36 17.37C13.86 16.65 5.94 17.19 3.42 11.07C0.9 4.95001 0.9 4.95001 0 0Z" sodipodi:nodetypes="czzzzzzzzzzzzzzczzzzzzzzczzzzzcc"/><path id="shape24" transform="translate(165.419999618854, 71.5395786362705)" fill="none" stroke="#096201" stroke-width="2.4" stroke-linecap="square" stroke-linejoin="bevel" d="M0 0.640421C6.72 -0.919579 9.72 0.370421 9 4.51042C7.92 10.7204 5.4222 13.8232 6.3 16.9304C7.1778 20.0377 10.331 20.851 14.13 17.7404C17.929 14.6298 18.54 12.1604 18.45 15.5804C18.36 19.0004 14.6834 32.72 18.09 30.1604C21.4966 27.6008 19.0879 32.246 21.51 33.9404C23.9321 35.6349 26.64 34.0304 27.36 30.8804C28.08 27.7304 28.35 23.3204 27.27 20.2604C26.55 18.2204 26.43 15.3104 26.91 11.5304" sodipodi:nodetypes="czzzzzzzzc"/><path id="shape25" transform="translate(193.499993787407, 73.8599976286193)" fill="none" stroke="#096201" stroke-width="2.4" stroke-linecap="square" stroke-linejoin="bevel" d="M0 2.46C2.52 4.7 3.92 6.26 4.2 7.14C4.62 8.46 5.28 12.24 7.32 9.3C9.36 6.36 9.54 0.78 8.58 0" sodipodi:nodetypes="czzc"/><path id="shape26" transform="translate(95.9999969177849, 161.969994786314)" fill="none" stroke="#096201" stroke-width="2.4" stroke-linecap="square" stroke-linejoin="bevel" d="M0 10.23C1.54 13.29 2.35 15.82 2.43 17.82C2.55 20.82 6.72 21.63 8.16 18.63C9.6 15.63 11.52 14.67 13.2 20.67C14.88 26.67 16.56 33.39 19.2 33.75C21.84 34.11 25.08 33.27 24.6 29.43C24.28 26.87 23.6 23.67 22.56 19.83C22.9147 13.6348 23.7147 12.5148 24.96 16.47C26.8279 22.4027 27.7001 21.7407 30.48 20.55C33.2599 19.3593 35.6743 16.8839 33.33 10.56C31.7671 6.34407 31.0021 3.82407 31.035 3C31.4137 1.14052 32.0271 0.571301 32.64 0" sodipodi:nodetypes="czzzzzczzzcc"/><path id="shape27" transform="translate(3.68796590228337, 179.687447420725)" fill="none" stroke="#096201" stroke-width="2.16" stroke-linecap="square" stroke-linejoin="bevel" d="M0.0020339 1.45254C-0.0379661 4.95254 0.512034 6.58254 1.65203 6.34254C3.36203 5.98254 4.35203 -0.587458 6.24203 0.0425415C7.50203 0.462541 8.25203 1.09254 8.49203 1.93254" sodipodi:nodetypes="czzc"/><path id="shape28" transform="translate(195.239993731553, 188.609993944419)" fill="none" stroke="#096201" stroke-width="2.4" stroke-linecap="square" stroke-linejoin="bevel" d="M0 6.75C0.152478 1.68908 1.59248 0.409079 4.32 2.91C8.41128 6.66138 7.54002 8.07494 11.52 7.71C14.1733 7.4667 14.7833 4.8967 13.35 0" sodipodi:nodetypes="czzc"/><path id="shape29" transform="translate(146.879995284218, 130.777431576735)" fill="none" stroke="#096201" stroke-width="2.4" stroke-linecap="square" stroke-linejoin="bevel" d="M0 3.14256C2.04 -0.757436 3.96 -1.02744 5.76 2.33256C8.46 7.37256 8.55 12.4126 12.06 10.3426C15.57 8.27256 14.04 -0.367436 16.38 2.87256C18.72 6.11256 19.17 15.7426 21.6 17.7226C24.03 19.7026 26.46 22.6726 27.09 18.8926C27.72 15.1126 25.8314 9.3909 25.74 8.36256C25.6486 7.33422 27.1494 5.43474 28.89 8.09256" sodipodi:nodetypes="czzzzzzc"/><path id="shape30" transform="translate(124.197692032758, 60.1199998614822)" fill="none" stroke="#12570b" stroke-width="2.4" stroke-linecap="square" stroke-linejoin="bevel" d="M13.6823 0C4.44231 2.22 -0.117692 3.69 0.00230768 4.41" sodipodi:nodetypes="cc"/><path id="shape31" transform="translate(11.1599999742958, 132.539999691151)" fill="#ffffff" fill-rule="evenodd" stroke="#000000" stroke-width="1.2" stroke-linecap="square" stroke-linejoin="bevel" d="M0 28.92L1.56 8.76C2.52441 14.2595 4.81566 18.1004 8.34 20.4C7.8311 15.56 8.76437 10.72 9.48 5.88C13.5117 9.67792 16.7594 13.2798 18.24 16.44C18.1904 11.68 19.7288 6.92 20.88 2.16C23.1904 6.40638 23.6839 11.864 28.56 14.4C27.8668 9.34835 30.9121 4.76401 32.52 0C34.3837 4.8242 35.6773 10.0285 38.4 14.28C41.56 6.50788 44.72 5.59283 47.88 2.16C47.8736 7.09618 48.0313 12.4189 48.36 15.84C52.5925 13.7984 54.6994 9.89694 56.4 5.64C57.1516 9.36 57.6259 13.08 59.28 16.8C60.5386 15.984 62.4586 12.464 65.04 6.24C66.0001 10.2799 66.7333 14.5467 68.76 17.52C69.7879 14.0121 71.1056 10.2144 72.36 6.48C73.4068 10.0967 73.8083 13.6212 76.41 17.46C77.7683 13.3792 78.2522 11.5161 77.22 6.24C79.7016 10.0384 81.5383 10.7017 84.24 14.28C85.2939 9.92 84.6761 5.56 84.36 1.2C86.2913 3.30535 87.3837 5.65036 90.84 7.32C89.7349 10.6283 87.0871 13.162 82.8965 14.9211C79.8478 16.2943 76.3356 17.4006 72.36 18.24C66.3966 19.4991 54.6089 15.9638 45.8007 15.1013C38.0997 13.4503 31.6665 14.2873 29.88 14.16C29.0851 14.1034 23.9336 13.8477 19.1048 15.2645C13.0803 17.0321 7.09052 20.7684 5.28 23.4C1.8 26.52 0.6 29.52 0 28.92Z" sodipodi:nodetypes="cccccccccccccccccccccczczccc"/><path id="shape32" transform="translate(14.3399990729028, 131.939991831882)" fill="#ffffff" fill-rule="evenodd" stroke="#000000" stroke-width="1.2" stroke-linecap="square" stroke-linejoin="bevel" d="M0 25.92L1.86 7.86C2.95886 12.7329 4.77848 16.3738 6.48 19.74C7.7621 14.98 10.2294 9.5 10.02 4.74L12.96 15.96L12.3 3.78C13.9867 7.27665 15.6411 12.0569 17.775 15.33C19.108 11.8048 21.2987 6.84904 21.72 2.64L24.345 14.895L24.06 2.79C26.4246 8.40931 26.9258 12.3042 29.295 14.685C30.9463 10.5763 31.0618 5.91412 33.24 1.86L34.74 14.895C34.971 9.66303 35.5288 5.87179 35.28 0C41.4193 16.945 38.9664 11.655 40.095 15.345C43.3051 12.7737 46.6777 7.78817 48.84 3.72L48.12 17.28C50.8693 13.7678 54.57 13.11 56.04 5.76L56.46 16.86L57.54 5.34C58.5195 10.7512 60.1373 14.5668 61.74 18.42C63.3507 15.1888 65.1478 12.1814 66 8.04C66.649 11.3247 67.2137 15.0347 69.3 18C70.164 16.1921 71.6283 13.8487 72.18 7.2C73.9853 10.1863 75.8537 14.4034 78.54 16.215L76.98 4.2C80.0716 8.59496 80.5403 11.4885 82.32 15C81.0027 11.8338 79.3931 7.05544 77.94 2.76C80.6872 5.07275 83.6909 7.12906 86.58 9.3L86.22 2.52C87.519 4.11318 88.3849 3.77924 89.94 4.14C88.9402 6.0055 87.3769 8.0439 85.2502 10.2552C83.7369 12.515 81.0002 14.6866 77.04 16.77C71.0998 19.8951 48.3026 16.8973 36.96 15.045C25.6174 13.1927 16.26 13.425 9.3 18.465C2.34 23.505 2.76 26.04 0 25.92Z" sodipodi:nodetypes="cccccccccccccccccccccccccccccccczzcc"/><path id="shape33" transform="translate(9.98999930107329, 105.216491297499)" fill="#ffffff" fill-rule="evenodd" stroke="#000000" stroke-width="1.2" stroke-linecap="square" stroke-linejoin="bevel" d="M0 4.0135C2.96 12.3735 5.27 18.3235 6.93 21.8635C7.9902 16.6238 10.65 13.7835 12.51 9.7435C14.6551 14.0141 17.5414 18.0067 17.91 22.9435C19.1576 18.5835 20.3434 14.2235 22.17 9.8635C24.1178 13.8404 25.7421 17.9467 27.09 22.1635C28.4972 16.9452 29.4235 10.2839 31.47 6.98351C34.0432 10.1792 35.7582 14.5193 37.65 18.6235C37.755 13.951 37.8232 9.29692 39.33 3.92351C41.8769 7.00219 44.6178 8.91642 46.95 13.2835C47.3539 9.28222 47.9853 5.98506 49.05 1.76351C52.0656 5.13679 54.7072 7.41177 57.51 11.4235C57.3955 7.80988 58.184 4.422 59.01 1.04351C60.9665 4.46351 62.7348 7.8835 63.27 11.3035L67.5 3.0235C67.9421 6.42867 69.1192 9.53984 68.49 13.3735L74.88 7.7935C74.6517 10.8708 75.3812 13.8283 73.41 17.1235C76.27 15.0912 79.13 13.4623 81.99 12.8635C81.7821 16.0315 81.236 19.115 80.07 22.0435C82.71 19.5033 85.35 17.4448 87.99 16.1035C88.3151 19.1572 87.8336 22.4126 87.21 25.7035C88.97 23.8396 90.73 21.5338 92.49 20.7835C87.3699 16.3847 81.981 12.4392 76.3232 8.94694C75.3398 7.62657 71.4087 5.21209 64.53 1.70351C54.2119 -3.55937 35.8741 4.7132 25.59 8.42351C22.3643 12.6458 17.5357 10.9641 14.7106 10.342C10.0025 11.5072 4.93457 6.43355 0 4.0135Z" sodipodi:nodetypes="cccccccccccccccccccccccczccc"/><path id="shape34" transform="translate(13.4099995882397, 105.001050733522)" fill="#ffffff" fill-rule="evenodd" stroke="#000000" stroke-width="1.2" stroke-linecap="square" stroke-linejoin="bevel" d="M0 6.11894L6.75 21.8689C6.70583 17.2995 7.66971 13.4021 8.28 9.26894C9.01622 13.7089 9.98303 18.1489 9.81 22.5889L13.77 9.98894C15.2834 14.1367 18.4918 17.957 18.72 22.3189C19.5479 17.3549 21.1593 12.652 22.68 7.91894L27.9 21.7789L26.64 7.10894L28.8 20.1589C29.7086 14.9389 31.1348 9.71894 32.76 4.49894C34.605 8.91641 36.6645 13.0121 38.07 18.0889L39.06 2.69894L38.97 16.3789L43.83 0.988945L48.24 12.6889C49.2463 8.51894 50.8303 4.34894 52.29 0.178945L56.61 11.6989C57.5283 7.73399 58.6322 4.3256 60.03 1.79894C61.2148 4.92237 63.0342 7.76373 62.19 11.7889L67.77 4.22894C68.3632 7.92781 69.8718 11.7792 67.77 15.0289L73.98 9.89894L73.62 18.7189L81.18 12.9589C79.344 15.2307 77.6557 17.7159 75.24 19.5289C78.9971 18.6232 82.712 17.9288 86.31 17.8189C84.0899 18.9362 82.5638 20.6241 80.82 22.3789L89.19 20.3689C89.025 22.5908 88.4772 25.0627 87.06 26.1889L91.44 24.2989C90.9601 23.6947 90.1551 22.6397 89.025 21.1339C88.4109 20.6443 87.8309 19.5243 87.285 17.7739C86.4662 15.1484 64.6012 3.0861 56.85 0.808942C49.0988 -1.46822 42.4843 1.66971 37.62 2.78894C35.0953 3.36986 31.2577 6.33116 26.7969 7.71475C22.6634 8.99686 17.9608 8.64442 14.1 10.6189C9.01785 11.526 0.178556 5.96106 0 6.11894Z" sodipodi:nodetypes="cccccccccccccccccccccccccccccccczzzccc"/><path id="shape01" transform="translate(1.94999994767378, 7.06194626664382)" fill="none" stroke="#076200" stroke-width="2.4" stroke-linecap="square" stroke-linejoin="bevel" d="M2.205 39.4231C-0.315 32.2231 -0.675 25.6831 1.125 19.8031C3.825 10.9831 10.125 1.62306 21.465 3.42306C32.805 5.22306 38.205 9.36314 44.505 10.2631C50.805 11.1631 59.985 12.6031 62.865 8.82306C65.745 5.04306 65.925 2.16306 76.545 0.363053C87.165 -1.43694 97.425 3.78306 106.605 8.82306C115.785 13.8631 121.005 17.1031 134.685 17.6431C148.365 18.1831 154.125 18.1831 163.125 16.2031C172.125 14.2231 182.925 9.72306 192.285 16.0231C201.645 22.3231 207.405 28.4431 207.945 37.8031C208.485 47.1631 206.865 63.3631 203.265 71.4631C199.665 79.5631 203.085 77.4031 204.705 86.2231C206.325 95.0431 207.945 94.6831 206.865 101.163C205.785 107.643 208.17 108.678 204.705 110.028C201.24 111.378 200.34 105.528 201.15 108.138C201.96 110.748 205.155 111.693 204.525 115.743C203.895 119.793 200.835 126.543 200.385 131.853C199.935 137.163 198.765 148.773 200.025 152.283C201.285 155.793 200.775 158.853 201.615 160.323C202.455 161.793 203.685 164.103 206.655 165.933C209.625 167.763 213.525 168.933 215.145 171.723C216.765 174.513 216.855 175.953 219.015 176.853C221.175 177.753 226.035 177.033 228.285 179.013C230.535 180.993 234.495 184.233 235.035 188.553C235.575 192.873 237.405 200.493 235.695 202.833C233.985 205.173 231.375 202.563 227.655 206.103C223.935 209.643 220.815 206.253 217.035 208.533C213.255 210.813 211.005 210.333 206.415 210.153C201.825 209.973 198.135 211.953 194.985 213.213C191.835 214.473 187.875 216.723 181.575 216.453C175.275 216.183 171.045 217.023 163.665 214.983C156.285 212.943 141.525 209.643 134.325 210.243C127.125 210.843 116.685 212.343 113.865 213.243C111.045 214.143 93.525 218.868 88.35 218.418C83.175 217.968 76.305 218.763 70.245 216.483C64.185 214.203 56.085 213.663 48.345 212.223C40.605 210.783 38.415 210.018 33.6 210.918C28.785 211.818 26.3752 213.153 17.55 212.658C8.72479 212.163 6.84 208.863 4.2 202.983C1.56 197.103 0.045 194.043 0.315 184.053C0.585 174.063 5.325 158.943 10.605 153.183C15.885 147.423 23.025 141.003 30.885 139.803C38.745 138.603 48.525 139.323 55.785 140.463C63.045 141.603 76.665 143.943 80.445 143.103C84.225 142.263 91.725 141.663 96.825 136.923C101.925 132.183 103.725 125.193 102.465 122.313C101.205 119.433 98.055 114.123 95.355 113.043C92.655 111.963 84.465 105.843 81.045 103.773C77.625 101.703 66.465 96.9331 60.525 97.9231C54.585 98.9131 50.715 100.353 43.695 103.053C36.675 105.753 28.755 109.263 20.565 107.283C12.375 105.303 9.09 104.448 6.93 99.2281C4.77 94.0081 3.735 87.0331 5.715 78.8431C7.695 70.6531 8.775 59.4031 7.335 55.1731C5.895 50.9431 5.895 50.9431 2.205 39.4231Z" sodipodi:nodetypes="czzzzzzzzzzzzzzzzzzzzzzzzzzzzzzzzzzzzzzzzzzzzzzzzzzzzzcc"/><path id="shape35" transform="translate(193.825999563731, 73.9799998295885)" fill="#33a727" fill-rule="evenodd" stroke="#30a824" stroke-width="2.4" stroke-linecap="square" stroke-linejoin="bevel" d="M0.484 2.28C2.824 3.94 4.144 5.37 4.444 6.57C4.894 8.37 3.769 11.025 5.794 9.36C7.819 7.695 9.214 1.65 8.404 0.975C7.864 0.525 7.294 0.2 6.694 0C5.5268 2.03169 4.1918 2.54169 2.689 1.53C1.18619 0.518313 0.466195 0.713313 0.529 2.115C-0.161 1.775 -0.176 1.83 0.484 2.28Z" sodipodi:nodetypes="czzzczcc"/><path id="shape36" transform="translate(182.252136801056, 83.3699948691166)" fill="#30a824" fill-rule="evenodd" stroke="#30ac24" stroke-width="2.4" stroke-linecap="square" stroke-linejoin="bevel" d="M2.74286 1.41C0.342857 10.35 -0.482143 15.3 0.267857 16.26C1.39286 17.7 3.44786 16.65 3.44786 17.79C3.44786 18.93 3.72855 22.5364 5.09786 22.41C6.46717 22.2836 8.27947 21.872 9.83786 20.76C11.3963 19.648 10.9179 13.62 10.0179 10.62C9.41786 8.62 9.30786 5.46 9.68785 1.14C9.44785 0.38 9.26785 0 9.14785 0C8.96785 0 4.28786 2.64 2.74286 1.41Z" sodipodi:nodetypes="czzzzzccc"/><path id="shape37" transform="translate(172.602236647734, 77.2799975260132)" fill="#30ac24" fill-rule="evenodd" stroke="#2fac23" stroke-width="2.4" stroke-linecap="square" stroke-linejoin="bevel" d="M3.39276 0C6.35276 4.4 8.73276 6.555 10.5328 6.465C13.2328 6.33 6.63276 11.1 4.83276 11.415C3.03276 11.73 -1.78224 11.91 0.692758 6.105C3.16776 0.3 2.44776 0.54 3.39276 0Z" sodipodi:nodetypes="czzcc"/><path id="shape38" transform="translate(165.704989758939, 70.3320360574317)" fill="none" stroke="#2fac23" stroke-width="2.4" stroke-linecap="square" stroke-linejoin="bevel" d="M0 1.51796C7.57 -0.94204 11.155 -0.41204 10.755 3.10796C10.155 8.38796 6.915 17.6564 8.655 18.258C10.395 18.8595 11.655 17.3154 13.515 16.008C15.375 14.7005 21.675 11.088 20.835 14.868C19.995 18.648 16.875 29.028 18.375 28.728C19.875 28.428 23.115 27.828 22.875 30.048C22.635 32.268 24.315 36.048 25.155 32.688C25.715 30.448 25.615 26.728 24.855 21.528C24.775 15.608 25.095 12.528 25.815 12.288" sodipodi:nodetypes="czzzzzzzcc"/><path id="shape39" transform="matrix(1 0.00793650793650954 2.44929359829471e-16 1 204.359987348438 111.119881840345)" fill="#2fac23" fill-rule="evenodd" stroke="#30ad24" stroke-width="2.4" stroke-linecap="square" stroke-linejoin="bevel" d="M0 2.21326C1.75904 0.182786 2.56127 -0.450602 2.40668 0.313103C2.1748 1.45866 2.69524 3.43208 2.09391 3.79116C1.49258 4.15023 0.159176 5.08586 0 2.21326Z" sodipodi:nodetypes="czcc"/><path id="shape40" transform="translate(165.344989749479, 136.169991548499)" fill="#30ad24" fill-rule="evenodd" stroke="#33b227" stroke-width="2.4" stroke-linecap="square" stroke-linejoin="bevel" d="M0 0C3.41204 1.92587 5.24204 2.70587 5.49 2.34C5.86194 1.7912 8.05302 8.82632 8.355 9.765C8.65698 10.7037 6.94877 16.6606 3.495 12.465C1.335 7.335 0.855 6.615 0 0Z" sodipodi:nodetypes="czzcc"/><path id="shape41" transform="translate(152.699999680429, 131.309999687681)" fill="#33b227" fill-rule="evenodd" stroke="#30b224" stroke-width="2.4" stroke-linecap="square" stroke-linejoin="bevel" d="M0 0C2.28148 2.01316 4.20148 2.66316 5.76 1.95C6.35522 1.67764 7.56522 1.09763 9.39 0.209996C9.94798 0.294737 9.43798 1.27474 7.86 3.15C7.5 6.51 6.72 7.97 5.52 7.53C3.72 6.87 2.64 7.2 0 0Z" sodipodi:nodetypes="czcccc"/><path id="shape42" transform="translate(146.459999662616, 128.824459749158)" fill="none" stroke="#30b224" stroke-width="2.4" stroke-linecap="square" stroke-linejoin="bevel" d="M0 4.13554C1.68 0.0955399 3.42 -0.984459 5.22 0.895541C7.92 3.71554 9.42 10.5555 10.98 10.3155C12.54 10.0755 12.66 7.25554 13.8 5.75554C14.94 4.25554 15 0.595541 17.58 3.77554C20.16 6.95554 22.26 18.8262 23.94 19.9155C25.62 21.0049 27.3521 22.8401 25.74 19.5555C24.1279 16.271 24.7819 6.36529 27.48 8.21554" sodipodi:nodetypes="czzzzzzc"/><path id="shape43" transform="translate(195.01498796719, 188.965747029844)" fill="none" stroke="#30b224" stroke-width="2.4" stroke-linecap="square" stroke-linejoin="bevel" d="M0 5.62924C0.23 0.29924 1.685 -1.24576 4.365 0.99424C8.385 4.35424 11.115 6.22924 11.955 4.30924C12.515 3.02924 12.83 1.67424 12.9 0.24424" sodipodi:nodetypes="czzc"/><path id="shape44" transform="translate(118.079992689868, 167.250065189706)" fill="#30b224" fill-rule="evenodd" stroke="#2fb223" stroke-width="2.4" stroke-linecap="square" stroke-linejoin="bevel" d="M0 6.65993C4.51474 6.51969 7.04474 4.78969 7.59 1.46993C8.40789 -3.50973 11.6351 5.60993 11.88 7.43993C12.1249 9.26993 11.55 13.578 8.7 15.1199C5.85 15.1199 4.71 15.7499 0 6.65993Z" sodipodi:nodetypes="czzcc"/><path id="shape45" transform="translate(107.58749979328, 176.834999592629)" fill="#2fb223" fill-rule="evenodd" stroke="#2cb41f" stroke-width="2.4" stroke-linecap="square" stroke-linejoin="bevel" d="M0 0.99C2.39 3.01 4.2 3.6375 5.43 2.8725C6.66 2.1075 7.8475 1.15 8.9925 0C11.1625 8.85999 11.9925 13.74 11.4825 14.64C10.7175 15.99 9.14249 18.825 6.75749 15.675C4.37249 12.525 4.05662 13.0937 0 0.99Z" sodipodi:nodetypes="czczcc"/><path id="shape46" transform="translate(96.6599968966333, 162.224994791603)" fill="none" stroke="#2cb41f" stroke-width="2.4" stroke-linecap="square" stroke-linejoin="bevel" d="M0 10.125C2.43 13.305 3.645 15.285 3.645 16.065C3.645 17.235 4.5 19.26 5.13 18.09C5.76 16.92 8.235 13.95 9.72 14.67C11.205 15.39 13.86 17.82 15.435 24.21C17.01 30.6 19.954 33.4096 21.465 31.05C22.4724 29.4769 21.8424 25.1419 19.575 18.045C19.935 13.305 20.805 11.25 22.185 11.88C24.255 12.825 25.56 16.605 26.415 17.775C27.27 18.945 28.8959 20.3835 31.05 17.01C33.2041 13.6365 32.265 11.565 31.095 8.955C29.925 6.345 29.115 0.63 30.78 0" sodipodi:nodetypes="czzzzzczzzzc"/><path id="shape47" transform="translate(5.56499998539174, 178.100644446195)" fill="none" stroke="#2cb41f" stroke-width="2.4" stroke-linecap="square" stroke-linejoin="bevel" d="M0.4875 1.20186C0.260115 3.35163 0.1625 5.24186 0 7.26185C1.36 2.24686 2.61 -0.170645 3.75 0.00935515C4.89 0.189355 5.865 1.16436 6.675 2.93436" sodipodi:nodetypes="cczc"/><path id="shape48" transform="translate(136.079995631, 70.4249977389269)" fill="none" stroke="#2cb41f" stroke-width="2.4" stroke-linecap="square" stroke-linejoin="bevel" d="M10.05 0C4.383 9.05401 1.593 16.499 1.68 22.335C1.767 28.171 2.487 42.531 3.84 65.415L5.64 98.775C5.37169 112.037 4.59169 119.477 3.3 121.095C2.00831 122.713 0.908305 129.333 0 140.955" sodipodi:nodetypes="czcczc"/><path id="shape49" transform="translate(135.359991555598, 56.2799965157491)" fill="none" stroke="#075900" stroke-width="2.4" stroke-linecap="square" stroke-linejoin="bevel" d="M73.8 0C73.24 7.36 71.76 10.84 69.36 10.44C65.76 9.84 62.88 9.48 62.64 6.24C62.4 3 59.88 3.96 60.12 4.92C60.36 5.88 57.48 6 56.88 2.88C56.28 -0.24 54.96 5.88 50.16 5.64C45.36 5.4 39.96 4.2 33.72 6C27.48 7.8 10.56 11.04 7.68 16.08C4.8 21.12 -0.48 32.04 0.12 42.6C0.52 49.64 1.52 64.98 3.12 88.62C4.88001 110.88 4.89001 124.98 3.15001 130.92C1.41001 136.86 0.360005 144.32 0 153.3" sodipodi:nodetypes="czzzzzzzzczc"/><path id="shape50" transform="translate(3.53999989528316, 29.4913550175514)" fill="none" stroke="#075800" stroke-width="2.4" stroke-linecap="square" stroke-linejoin="bevel" d="M0 9.62865C4.64 4.58865 8.72 1.54865 12.24 0.508643C17.52 -1.05135 25.08 1.10865 26.16 5.18865C27.24 9.26865 23.28 13.5886 22.92 16.1086C22.56 18.6286 22.2 25.1086 26.04 26.4286C29.88 27.7486 34.32 29.1886 36.84 24.2686C38.52 20.9886 40.04 17.2286 41.4 12.9886C42.76 11.7886 44.04 11.9486 45.24 13.4686C47.04 15.7486 44.64 18.7486 52.08 17.7886C59.52 16.8286 72.84 17.3086 79.32 21.6286C85.8 25.9486 91.89 29.6686 96.93 30.1186C101.97 30.5686 116.37 36.8686 119.34 34.5286C122.31 32.1886 121.14 43.9786 124.47 49.5586C126.69 53.2786 128.94 57.4186 131.22 61.9786C131.484 65.1616 132.271 68.0832 131.67 71.6986L135 123.149C135.898 131.625 136.142 140.232 135.84 148.949L133.8 161.429C132.52 175.469 132 182.809 132.24 183.449" sodipodi:nodetypes="czzzzzczzzzzzcccccc"/><path id="shape51" transform="translate(3.83999976227003, 203.489987402168)" fill="#075a00" fill-rule="evenodd" stroke="#075a00" stroke-width="2.4" stroke-linecap="square" stroke-linejoin="bevel" d="M0 0C6.24 6.36 11.49 9.63 15.75 9.81C22.14 10.08 33.12 7.83 38.07 7.83C43.02 7.83 58.14 9.81 64.98 12.87C71.82 15.93 78.57 17.64 85.32 16.83C92.07 16.02 111.6 11.88 113.58 11.97C115.56 12.06 124.8 9.87001 131.88 9.99001C138.96 10.11 149.82 10.77 156.18 12.39C162.54 14.01 171.78 16.59 176.22 15.93C180.66 15.27 188.88 13.35 192.3 11.91C195.72 10.47 201.78 9.27001 204.255 9.72001C206.73 10.17 211.635 9.85501 212.265 9.27001C212.895 8.68501 215.145 7.56001 217.62 8.05501C220.095 8.55001 221.82 7.95 223.95 6.75C226.08 5.55 227.94 4.47 229.83 4.74C231.09 4.92 232.405 3.91 233.775 1.71C235.215 3.33 235.365 4.71001 234.225 5.85001C232.515 7.56001 230.085 7.56001 228.825 8.28001C227.565 9.00001 224.505 11.655 222.795 11.7C221.085 11.745 217.935 10.89 215.415 12.33C212.895 13.77 208.8 14.49 205.785 14.22C202.77 13.95 195.48 15.75 193.14 17.1C190.8 18.45 186.48 19.935 184.095 20.025C181.71 20.115 174.24 21.42 169.785 20.655C166.815 20.145 159.66 18.495 148.32 15.705C134.52 14.055 123.84 14.19 116.28 16.11C104.94 18.99 92.88 23.31 85.14 22.59C77.4 21.87 73.08 22.59 67.68 20.79C62.28 18.99 43.2 16.29 38.16 15.03C33.12 13.77 22.86 18.09 18.36 17.37C13.86 16.65 5.94 17.19 3.42 11.07C0.9 4.95001 0.9 4.95001 0 0Z" sodipodi:nodetypes="czzzzzzzzzzzzzzczzzzzzzzczzzzzcc"/><path id="shape52" transform="translate(165.419999618854, 71.5395786362705)" fill="none" stroke="#096201" stroke-width="2.4" stroke-linecap="square" stroke-linejoin="bevel" d="M0 0.640421C6.72 -0.919579 9.72 0.370421 9 4.51042C7.92 10.7204 5.4222 13.8232 6.3 16.9304C7.1778 20.0377 10.331 20.851 14.13 17.7404C17.929 14.6298 18.54 12.1604 18.45 15.5804C18.36 19.0004 14.6834 32.72 18.09 30.1604C21.4966 27.6008 19.0879 32.246 21.51 33.9404C23.9321 35.6349 26.64 34.0304 27.36 30.8804C28.08 27.7304 28.35 23.3204 27.27 20.2604C26.55 18.2204 26.43 15.3104 26.91 11.5304" sodipodi:nodetypes="czzzzzzzzc"/><path id="shape53" transform="translate(193.499993787407, 73.8599976286193)" fill="none" stroke="#096201" stroke-width="2.4" stroke-linecap="square" stroke-linejoin="bevel" d="M0 2.46C2.52 4.7 3.92 6.26 4.2 7.14C4.62 8.46 5.28 12.24 7.32 9.3C9.36 6.36 9.54 0.78 8.58 0" sodipodi:nodetypes="czzc"/><path id="shape54" transform="translate(95.9999969177849, 161.969994786314)" fill="none" stroke="#096201" stroke-width="2.4" stroke-linecap="square" stroke-linejoin="bevel" d="M0 10.23C1.54 13.29 2.35 15.82 2.43 17.82C2.55 20.82 6.72 21.63 8.16 18.63C9.6 15.63 11.52 14.67 13.2 20.67C14.88 26.67 16.56 33.39 19.2 33.75C21.84 34.11 25.08 33.27 24.6 29.43C24.28 26.87 23.6 23.67 22.56 19.83C22.9147 13.6348 23.7147 12.5148 24.96 16.47C26.8279 22.4027 27.7001 21.7407 30.48 20.55C33.2599 19.3593 35.6743 16.8839 33.33 10.56C31.7671 6.34407 31.0021 3.82407 31.035 3C31.4137 1.14052 32.0271 0.571301 32.64 0" sodipodi:nodetypes="czzzzzczzzcc"/><path id="shape55" transform="translate(3.68796590228337, 179.687447420725)" fill="none" stroke="#096201" stroke-width="2.16" stroke-linecap="square" stroke-linejoin="bevel" d="M0.0020339 1.45254C-0.0379661 4.95254 0.512034 6.58254 1.65203 6.34254C3.36203 5.98254 4.35203 -0.587458 6.24203 0.0425415C7.50203 0.462541 8.25203 1.09254 8.49203 1.93254" sodipodi:nodetypes="czzc"/><path id="shape56" transform="translate(195.239993731553, 188.609993944419)" fill="none" stroke="#096201" stroke-width="2.4" stroke-linecap="square" stroke-linejoin="bevel" d="M0 6.75C0.152478 1.68908 1.59248 0.409079 4.32 2.91C8.41128 6.66138 7.54002 8.07494 11.52 7.71C14.1733 7.4667 14.7833 4.8967 13.35 0" sodipodi:nodetypes="czzc"/><path id="shape57" transform="translate(146.879995284218, 130.777431576735)" fill="none" stroke="#096201" stroke-width="2.4" stroke-linecap="square" stroke-linejoin="bevel" d="M0 3.14256C2.04 -0.757436 3.96 -1.02744 5.76 2.33256C8.46 7.37256 8.55 12.4126 12.06 10.3426C15.57 8.27256 14.04 -0.367436 16.38 2.87256C18.72 6.11256 19.17 15.7426 21.6 17.7226C24.03 19.7026 26.46 22.6726 27.09 18.8926C27.72 15.1126 25.8314 9.3909 25.74 8.36256C25.6486 7.33422 27.1494 5.43474 28.89 8.09256" sodipodi:nodetypes="czzzzzzc"/><path id="shape58" transform="translate(124.197692032758, 60.1199998614822)" fill="none" stroke="#12570b" stroke-width="2.4" stroke-linecap="square" stroke-linejoin="bevel" d="M13.6823 0C4.44231 2.22 -0.117692 3.69 0.00230768 4.41" sodipodi:nodetypes="cc"/><ellipse id="shape59" transform="matrix(1.03182486911972 -0.056860961344029 0.056860961344029 1.03182486911972 15.8597436290798 74.9411652960331)" rx="9.54000027161212" ry="8.76000120202809" cx="9.54000027161212" cy="8.76000120202809" fill="#ffffff" fill-rule="evenodd" stroke="#ffffff" stroke-width="1.2" stroke-linecap="square" stroke-linejoin="bevel"/><ellipse id="shape60" transform="translate(24.48, 82.8)" rx="2.28" ry="3.6" cx="2.28" cy="3.6" fill="none" stroke="#ffffff" stroke-width="1.2" stroke-linecap="square" stroke-linejoin="bevel"/><ellipse id="shape61" transform="matrix(1.03182486911972 -0.056860961344029 0.056860961344029 1.03182486911972 23.2461517475037 81.6442872841876)" rx="3" ry="4.2" cx="3" cy="4.2" fill="none" stroke="#ffffff" stroke-width="1.2" stroke-linecap="square" stroke-linejoin="bevel"/><ellipse id="shape62" transform="matrix(1.03182486911972 -0.056860961344029 0.056860961344029 1.03182486911972 22.9105189908364 82.3148068817965)" rx="2.52" ry="3.12" cx="2.52" cy="3.12" fill="#000000" fill-rule="evenodd" stroke="#000000" stroke-width="1.2" stroke-linecap="square" stroke-linejoin="bevel"/><path id="shape63" transform="matrix(1.03182486911972 -0.056860961344029 0.056860961344029 1.03182486911972 27.8817887695284 82.9412625239151)" fill="none" stroke="#7a0800" stroke-width="0.24" stroke-linecap="square" stroke-linejoin="bevel" d="M0 0C1.44958 0 2.12886 0.63 3.48 0.63" sodipodi:nodetypes="cc"/><path id="shape64" transform="matrix(1.03182486911972 -0.056860961344029 0.056860961344029 1.03182486911972 28.5783524667411 86.5666290747156)" fill="none" stroke="#7a0800" stroke-width="0.24" stroke-linecap="square" stroke-linejoin="bevel" d="M0 0C0.579938 0 1.15628 1.95 3.12 1.95" sodipodi:nodetypes="cc"/><path id="shape65" transform="matrix(1.03182486911972 -0.056860961344029 0.056860961344029 1.03182486911972 30.258187967974 87.1881792673924)" fill="none" stroke="#7a0800" stroke-width="0.24" stroke-linecap="square" stroke-linejoin="bevel" d="M0 0.57C0.557574 0.57 1.57234 0 2.16 0" sodipodi:nodetypes="cc"/><path id="shape66" transform="matrix(1.03182486911972 -0.056860961344029 0.056860961344029 1.03182486911972 27.3340459065174 88.7775628858936)" fill="none" stroke="#7a0800" stroke-width="0.24" stroke-linecap="square" stroke-linejoin="bevel" d="M0 0C1.02859 0 0.652676 2.03268 1.38 2.76" sodipodi:nodetypes="cc"/><path id="shape67" transform="matrix(1.03182486911972 -0.056860961344029 0.056860961344029 1.03182486911972 26.5148562097611 90.2514902253538)" fill="none" stroke="#7a0800" stroke-width="0.24" stroke-linecap="square" stroke-linejoin="bevel" d="M1.77 0.0294765C1.52853 -0.211996 0.481732 1.10948 0 1.10948" sodipodi:nodetypes="cc"/><path id="shape68" transform="matrix(1.03182486911972 -0.056860961344029 0.056860961344029 1.03182486911972 26.4476804534081 78.8908136622418)" fill="none" stroke="#7a0800" stroke-width="0.24" stroke-linecap="square" stroke-linejoin="bevel" d="M0 2.46C0 4.00548 2.38452 0 3.93 0" sodipodi:nodetypes="cc"/><path id="shape69" transform="matrix(1.03182486911972 -0.056860961344029 0.056860961344029 1.03182486911972 26.4101522171624 78.209809250293)" fill="none" stroke="#7a0800" stroke-width="0.24" stroke-linecap="square" stroke-linejoin="bevel" d="M0.78 2.79C0.78 1.6143 0 0.990548 0 0" sodipodi:nodetypes="cc"/><path id="shape70" transform="matrix(1.03182486911972 -0.056860961344029 0.056860961344029 1.03182486911972 24.1700468601737 78.4574501426551)" fill="none" stroke="#7a0800" stroke-width="0.24" stroke-linecap="square" stroke-linejoin="bevel" d="M0.437626 2.94C-0.596443 2.94 0.393557 0 1.42763 0" sodipodi:nodetypes="cc"/><path id="shape71" transform="matrix(1.03182486911972 -0.056860961344029 0.056860961344029 1.03182486911972 22.4040412329178 80.4485861847918)" fill="none" stroke="#7a0800" stroke-width="0.24" stroke-linecap="square" stroke-linejoin="bevel" d="M1.83 0.540152C1.4866 0.540152 0 -0.21444 0 0.060152" sodipodi:nodetypes="cc"/><path id="shape72" transform="matrix(1.03182486911972 -0.056860961344029 0.056860961344029 1.03182486911972 19.6582341711903 80.0411796511459)" fill="none" stroke="#7a0800" stroke-width="0.24" stroke-linecap="square" stroke-linejoin="bevel" d="M2.90137 3.39C1.06725 3.39 -0.674845 0 0.261368 0" sodipodi:nodetypes="cc"/><path id="shape73" transform="matrix(1.03182486911972 -0.056860961344029 0.056860961344029 1.03182486911972 19.1150118712095 82.7410835594806)" fill="none" stroke="#7a0800" stroke-width="0.24" stroke-linecap="square" stroke-linejoin="bevel" d="M1.86 0.000216426C1.67401 -0.0115866 0 0.462737 0 0.600216" sodipodi:nodetypes="cc"/><path id="shape74" transform="matrix(1.03182486911972 -0.056860961344029 0.056860961344029 1.03182486911972 18.3191851746773 85.7658379855189)" fill="none" stroke="#7a0800" stroke-width="0.24" stroke-linecap="square" stroke-linejoin="bevel" d="M3.75 0C2.60943 0 0 1.97729 0 1.53" sodipodi:nodetypes="cc"/><path id="shape75" transform="matrix(1.03182486911972 -0.056860961344029 0.056860961344029 1.03182486911972 19.8337621557833 86.769080080491)" fill="none" stroke="#7a0800" stroke-width="0.24" stroke-linecap="square" stroke-linejoin="bevel" d="M0.27 0C0.27 0.852332 0.618917 1.51108 0 2.13" sodipodi:nodetypes="cc"/><path id="shape76" transform="matrix(1.03182486911972 -0.056860961344029 0.056860961344029 1.03182486911972 21.212329532185 88.1213535048667)" fill="none" stroke="#7a0800" stroke-width="0.24" stroke-linecap="square" stroke-linejoin="bevel" d="M2.22 0C1.0158 0 0 1.6458 0 2.85" sodipodi:nodetypes="cc"/><path id="shape77" transform="matrix(1.03182486911972 -0.056860961344029 0.056860961344029 1.03182486911972 22.1816619196034 89.3719837261645)" fill="none" stroke="#7a0800" stroke-width="0.24" stroke-linecap="square" stroke-linejoin="bevel" d="M0 0C0.566685 0 0.96 0.797799 0.96 1.26" sodipodi:nodetypes="cc"/><path id="shape78" transform="matrix(1.03182486911972 -0.056860961344029 0.056860961344029 1.03182486911972 24.7233625979677 89.2940152582323)" fill="none" stroke="#7a0800" stroke-width="0.24" stroke-linecap="square" stroke-linejoin="bevel" d="M0.63 0C0.63 0.709164 0 1.69212 0 2.01" sodipodi:nodetypes="cc"/><path id="shape79" transform="translate(25.5299984194959, 89.9999944283051)" fill="none" stroke="#7a0800" stroke-width="0.24" stroke-linecap="square" stroke-linejoin="bevel" d="M0 0C0.142738 0 0.11587 0.12 0.18 0.12" sodipodi:nodetypes="cc"/><path id="shape80" transform="matrix(1.03182486911972 -0.056860961344029 0.056860961344029 1.03182486911972 28.4452638537705 89.2223648356767)" fill="none" stroke="#7a0800" stroke-width="0.24" stroke-linecap="square" stroke-linejoin="bevel" d="M0 0.111055C0 -0.119919 0.765194 0.0810546 0.78 0.0810546" sodipodi:nodetypes="cc"/><path id="shape81" transform="matrix(1.03182486911972 -0.056860961344029 0.056860961344029 1.03182486911972 28.8389305288718 84.5341007596782)" fill="none" stroke="#7a0800" stroke-width="0.24" stroke-linecap="square" stroke-linejoin="bevel" d="M0 0.96C0 0.383112 0.863112 0 1.44 0" sodipodi:nodetypes="cc"/><path id="shape82" transform="matrix(1.03182486911972 -0.056860961344029 0.056860961344029 1.03182486911972 29.719103128012 81.3496734228152)" fill="none" stroke="#7a0800" stroke-width="0.24" stroke-linecap="square" stroke-linejoin="bevel" d="M0 1.53C0.697971 1.53 0.695168 0 1.77 0" sodipodi:nodetypes="cc"/><path id="shape83" transform="matrix(1.03182486911972 -0.056860961344029 0.056860961344029 1.03182486911972 19.8381738887401 84.5954272388757)" fill="none" stroke="#7a0800" stroke-width="0.24" stroke-linecap="square" stroke-linejoin="bevel" d="M2.22 1.05C2.5915 0.519293 0.102632 0 0 0" sodipodi:nodetypes="cc"/><path id="shape84" transform="matrix(1.03182486911972 -0.056860961344029 0.056860961344029 1.03182486911972 22.6099976197549 81.3688537423743)" fill="none" stroke="#7a0800" stroke-width="0.24" stroke-linecap="square" stroke-linejoin="bevel" d="M0.180001 1.92C0.411995 1.50241 0 0.524954 0 0" sodipodi:nodetypes="cc"/><path id="shape85" transform="matrix(1.03182486911972 -0.056860961344029 0.056860961344029 1.03182486911972 21.3718078165638 81.4370868937964)" fill="none" stroke="#7a0800" stroke-width="0.24" stroke-linecap="square" stroke-linejoin="bevel" d="M1.2 0C1.13927 0.789527 0.299399 0.36 0 0.36" sodipodi:nodetypes="cc"/><path id="shape86" transform="matrix(1.03182486911972 -0.056860961344029 0.056860961344029 1.03182486911972 23.2480129037214 78.4383962905959)" fill="none" stroke="#7a0800" stroke-width="0.24" stroke-linecap="square" stroke-linejoin="bevel" d="M1.215 0.3375C0.917778 0.0402785 0 0.420335 0 0" sodipodi:nodetypes="cc"/><path id="shape87" transform="translate(25.0874984468902, 79.1099951024806)" fill="none" stroke="#7a0800" stroke-width="0.24" stroke-linecap="square" stroke-linejoin="bevel" d="M0 0C0 0.0550868 0.154921 0.464762 0 0" sodipodi:nodetypes="cc"/><path id="shape88" transform="matrix(1.03182486911972 -0.056860961344029 0.056860961344029 1.03182486911972 27.6890516024017 77.4717797795894)" fill="none" stroke="#7a0800" stroke-width="0.24" stroke-linecap="square" stroke-linejoin="bevel" d="M1.3725 1.5975C1.13834 1.36334 0.358743 0 0 0" sodipodi:nodetypes="cc"/><path id="shape89" transform="matrix(1.03182486911972 -0.056860961344029 0.056860961344029 1.03182486911972 28.408654727481 80.5292370492343)" fill="none" stroke="#7a0800" stroke-width="0.24" stroke-linecap="square" stroke-linejoin="bevel" d="M0 0C0.195897 0 1.44 0.611133 1.44 0.7875" sodipodi:nodetypes="cc"/><path id="shape90" transform="matrix(1.03182486911972 -0.056860961344029 0.056860961344029 1.03182486911972 29.768907995942 86.1284359430523)" fill="none" stroke="#7a0800" stroke-width="0.24" stroke-linecap="square" stroke-linejoin="bevel" d="M0.116326 0.69C-0.582602 0.69 2.09633 0.698928 2.09633 0" sodipodi:nodetypes="cc"/><path id="shape91" transform="translate(29.3099981854849, 87.218126012163)" fill="none" stroke="#7a0800" stroke-width="0.24" stroke-linecap="square" stroke-linejoin="bevel" d="M0 0.0518687C0.197306 0.0518687 0.891761 -0.0648358 0.6 0.0518687" sodipodi:nodetypes="cc"/><path id="shape92" transform="matrix(1.03182486911972 -0.056860961344029 0.056860961344029 1.03182486911972 28.2570032601319 87.4963765588234)" fill="none" stroke="#7a0800" stroke-width="0.24" stroke-linecap="square" stroke-linejoin="bevel" d="M0 0.0487674C0.332014 -0.283247 0.876958 1.18877 1.35 1.18877" sodipodi:nodetypes="cc"/><path id="shape93" transform="matrix(1.03182486911972 -0.056860961344029 0.056860961344029 1.03182486911972 29.7441715494886 84.9033788358267)" fill="none" stroke="#7a0800" stroke-width="0.24" stroke-linecap="square" stroke-linejoin="bevel" d="M0 0C0 0.574668 0.945 0.449691 0.945 0.585" sodipodi:nodetypes="cc"/><ellipse id="shape02" transform="matrix(1.45970927849399 0.112283425911262 -0.110668282009895 1.53870168905639 76.8065987635467 74.1599976191011)" rx="9.54000027161212" ry="8.76000120202809" cx="9.54000027161212" cy="8.76000120202809" fill="#ffffff" fill-rule="evenodd" stroke="#000000" stroke-width="0.48" stroke-linecap="square" stroke-linejoin="bevel"/><ellipse id="shape110" transform="matrix(1.0933384746384 0.0812969545851452 -0.0812969545851452 1.0933384746384 83.8032333833128 85.1983756087231)" rx="3" ry="4.2" cx="3" cy="4.2" fill="none" stroke="#ffffff" stroke-width="1.2" stroke-linecap="square" stroke-linejoin="bevel"/><ellipse id="shape210" transform="matrix(1.45970927849399 0.112283425911262 -0.110668282009895 1.53870168905639 85.3754139880634 86.510346437316)" rx="2.52" ry="3.12" cx="2.52" cy="3.12" fill="#000000" fill-rule="evenodd" stroke="#000000" stroke-width="1.2" stroke-linecap="square" stroke-linejoin="bevel"/><path id="shape310" transform="matrix(1.45970927849399 0.112283425911262 -0.110668282009895 1.53870168905639 92.2537868448076 88.3630328299393)" fill="none" stroke="#7a0800" stroke-width="0.24" stroke-linecap="square" stroke-linejoin="bevel" d="M0 0C1.44958 0 2.12886 0.63 3.48 0.63" sodipodi:nodetypes="cc"/><path id="shape410" transform="matrix(1.45970927849399 0.112283425911262 -0.110668282009895 1.53870168905639 92.5997123216325 94.0413865539422)" fill="none" stroke="#7a0800" stroke-width="0.24" stroke-linecap="square" stroke-linejoin="bevel" d="M0 0C0.579938 0 1.15628 1.95 3.12 1.95" sodipodi:nodetypes="cc"/><path id="shape510" transform="matrix(1.45970927849399 0.112283425911262 -0.110668282009895 1.53870168905639 94.8460267740126 95.217000184647)" fill="none" stroke="#7a0800" stroke-width="0.24" stroke-linecap="square" stroke-linejoin="bevel" d="M0 0.57C0.557574 0.57 1.57234 0 2.16 0" sodipodi:nodetypes="cc"/><path id="shape610" transform="matrix(1.45970927849399 0.112283425911262 -0.110668282009895 1.53870168905639 90.4471683514145 97.054882875451)" fill="none" stroke="#7a0800" stroke-width="0.24" stroke-linecap="square" stroke-linejoin="bevel" d="M0 0C1.02859 0 0.652676 2.03268 1.38 2.76" sodipodi:nodetypes="cc"/><path id="shape710" transform="matrix(1.36410644819305 0.104929486691202 -0.103420125722498 1.4379252956814 88.5322690958509 100.193902106419)" fill="none" stroke="#7a0800" stroke-width="0.24" stroke-linecap="square" stroke-linejoin="bevel" d="M1.77 0.0294765C1.52853 -0.211996 0.481732 1.10948 0 1.10948" sodipodi:nodetypes="cc"/><path id="shape810" transform="matrix(1.45970927849399 0.112283425911262 -0.110668282009895 1.53870168905639 90.9883465923445 82.0605976385836)" fill="none" stroke="#7a0800" stroke-width="0.24" stroke-linecap="square" stroke-linejoin="bevel" d="M0 2.46C0 4.00548 2.38452 0 3.93 0" sodipodi:nodetypes="cc"/><path id="shape94" transform="matrix(1.45970927849399 0.112283425911262 -0.110668282009895 1.53870168905639 91.017596380049 81.0416860233756)" fill="none" stroke="#7a0800" stroke-width="0.24" stroke-linecap="square" stroke-linejoin="bevel" d="M0.78 2.79C0.78 1.6143 0 0.990548 0 0" sodipodi:nodetypes="cc"/><path id="shape101" transform="matrix(1.45970927849399 0.112283425911262 -0.110668282009895 1.53870168905639 87.8256155328856 80.9818189352293)" fill="none" stroke="#7a0800" stroke-width="0.24" stroke-linecap="square" stroke-linejoin="bevel" d="M0.437626 2.94C-0.596443 2.94 0.393557 0 1.42763 0" sodipodi:nodetypes="cc"/><path id="shape111" transform="matrix(1.45970927849399 0.112283425911262 -0.110668282009895 1.53870168905639 84.9775700339271 83.5939097051179)" fill="none" stroke="#7a0800" stroke-width="0.24" stroke-linecap="square" stroke-linejoin="bevel" d="M1.83 0.540152C1.4866 0.540152 0 -0.21444 0 0.060152" sodipodi:nodetypes="cc"/><path id="shape121" transform="matrix(1.45970927849399 0.112283425911262 -0.110668282009895 1.53870168905639 81.2401833325992 82.4089415387705)" fill="none" stroke="#7a0800" stroke-width="0.24" stroke-linecap="square" stroke-linejoin="bevel" d="M2.90137 3.39C1.06725 3.39 -0.674845 0 0.261368 0" sodipodi:nodetypes="cc"/><path id="shape131" transform="matrix(1.45970927849399 0.112283425911262 -0.110668282009895 1.53870168905639 79.9775394777788 86.3455848121522)" fill="none" stroke="#7a0800" stroke-width="0.24" stroke-linecap="square" stroke-linejoin="bevel" d="M1.86 0.000216426C1.67401 -0.0115866 0 0.462737 0 0.600216" sodipodi:nodetypes="cc"/><path id="shape141" transform="matrix(1.45970927849399 0.112283425911262 -0.110668282009896 1.53870168905639 78.2944501245375 90.9261606655337)" fill="none" stroke="#7a0800" stroke-width="0.24" stroke-linecap="square" stroke-linejoin="bevel" d="M3.75 0C2.60943 0 0 1.97729 0 1.53" sodipodi:nodetypes="cc"/><path id="shape151" transform="matrix(1.45970927849399 0.112283425911262 -0.110668282009895 1.53870168905639 80.2372896477222 92.6443883640611)" fill="none" stroke="#7a0800" stroke-width="0.24" stroke-linecap="square" stroke-linejoin="bevel" d="M0.27 0C0.27 0.852332 0.618917 1.51108 0 2.13" sodipodi:nodetypes="cc"/><path id="shape161" transform="matrix(1.45970927849399 0.112283425911262 -0.110668282009895 1.53870168905639 81.9238010050431 94.9092736713932)" fill="none" stroke="#7a0800" stroke-width="0.24" stroke-linecap="square" stroke-linejoin="bevel" d="M2.22 0C1.0158 0 0 1.6458 0 2.85" sodipodi:nodetypes="cc"/><path id="shape171" transform="matrix(1.45970927849399 0.112283425911262 -0.110668282009895 1.53870168905639 83.0543059720134 96.9457242540749)" fill="none" stroke="#7a0800" stroke-width="0.24" stroke-linecap="square" stroke-linejoin="bevel" d="M0 0C0.566685 0 0.96 0.797799 0.96 1.26" sodipodi:nodetypes="cc"/><path id="shape181" transform="matrix(1.45970927849399 0.112283425911262 -0.110668282009895 1.53870168905639 86.6360816868835 97.3287729155045)" fill="none" stroke="#7a0800" stroke-width="0.24" stroke-linecap="square" stroke-linejoin="bevel" d="M0.63 0C0.63 0.709164 0 1.69212 0 2.01" sodipodi:nodetypes="cc"/><path id="shape191" transform="matrix(1.45970927849399 0.112283425911262 -0.110668282009895 1.53870168905639 91.9257522603572 97.9251214555105)" fill="none" stroke="#7a0800" stroke-width="0.24" stroke-linecap="square" stroke-linejoin="bevel" d="M0 0.111055C0 -0.119919 0.765194 0.0810546 0.78 0.0810546" sodipodi:nodetypes="cc"/><path id="shape201" transform="matrix(1.45970927849399 0.112283425911262 -0.110668282009895 1.53870168905639 93.3013907953711 91.0001592338242)" fill="none" stroke="#7a0800" stroke-width="0.24" stroke-linecap="square" stroke-linejoin="bevel" d="M0 0.96C0 0.383112 0.863112 0 1.44 0" sodipodi:nodetypes="cc"/><path id="shape211" transform="matrix(1.45970927849399 0.112283425911262 -0.110668282009895 1.53870168905639 95.1256190409914 86.452422491953)" fill="none" stroke="#7a0800" stroke-width="0.24" stroke-linecap="square" stroke-linejoin="bevel" d="M0 1.53C0.697971 1.53 0.695168 0 1.77 0" sodipodi:nodetypes="cc"/><path id="shape221" transform="matrix(1.45970927849399 0.112283425911262 -0.110668282009896 1.53870168905639 80.6427128711196 89.5304579652909)" fill="none" stroke="#7a0800" stroke-width="0.24" stroke-linecap="square" stroke-linejoin="bevel" d="M2.22 1.05C2.5915 0.519293 0.102632 0 0 0" sodipodi:nodetypes="cc"/><path id="shape231" transform="matrix(1.45970927849399 0.112283425911262 -0.110668282009895 1.53870168905639 85.0499060348397 84.9763936971814)" fill="none" stroke="#7a0800" stroke-width="0.24" stroke-linecap="square" stroke-linejoin="bevel" d="M0.180001 1.92C0.411995 1.50241 0 0.524954 0 0" sodipodi:nodetypes="cc"/><path id="shape241" transform="matrix(1.45970927849399 0.112283425911262 -0.110668282009895 1.53870168905639 83.2982549568844 84.8416535904138)" fill="none" stroke="#7a0800" stroke-width="0.24" stroke-linecap="square" stroke-linejoin="bevel" d="M1.2 0C1.13927 0.789527 0.299399 0.36 0 0.36" sodipodi:nodetypes="cc"/><path id="shape251" transform="matrix(1.45970927849399 0.112283425911262 -0.110668282009895 1.53870168905639 86.5341265363619 80.7780310693845)" fill="none" stroke="#7a0800" stroke-width="0.24" stroke-linecap="square" stroke-linejoin="bevel" d="M1.215 0.3375C0.917778 0.0402785 0 0.420335 0 0" sodipodi:nodetypes="cc"/><path id="shape261" transform="matrix(1.45970927849399 0.112283425911262 -0.110668282009895 1.53870168905639 92.9488102027447 80.2405138534523)" fill="none" stroke="#7a0800" stroke-width="0.24" stroke-linecap="square" stroke-linejoin="bevel" d="M1.3725 1.5975C1.13834 1.36334 0.358743 0 0 0" sodipodi:nodetypes="cc"/><path id="shape271" transform="matrix(1.45970927849399 0.112283425911262 -0.110668282009895 1.53870168905639 93.4387218076537 84.9082377960606)" fill="none" stroke="#7a0800" stroke-width="0.24" stroke-linecap="square" stroke-linejoin="bevel" d="M0 0C0.195897 0 1.44 0.611133 1.44 0.7875" sodipodi:nodetypes="cc"/><path id="shape281" transform="matrix(1.45970927849399 0.112283425911262 -0.110668282009895 1.53870168905639 93.5323400585141 94.5434549081212)" fill="none" stroke="#7a0800" stroke-width="0.24" stroke-linecap="square" stroke-linejoin="bevel" d="M0 0.0518687C0.197306 0.0518687 0.891761 -0.0648358 0.6 0.0518687" sodipodi:nodetypes="cc"/><path id="shape291" transform="matrix(1.45970927849399 0.112283425911262 -0.110668282009895 1.53870168905639 91.9808992829607 95.2777878412)" fill="none" stroke="#7a0800" stroke-width="0.24" stroke-linecap="square" stroke-linejoin="bevel" d="M0 0.0487674C0.332014 -0.283247 0.876958 1.18877 1.35 1.18877" sodipodi:nodetypes="cc"/><path id="shape301" transform="matrix(1.45970927849399 0.112283425911262 -0.110668282009895 1.53870168905639 94.5046235324916 91.7193437313448)" fill="none" stroke="#7a0800" stroke-width="0.24" stroke-linecap="square" stroke-linejoin="bevel" d="M0 0C0 0.574668 0.945 0.449691 0.945 0.585" sodipodi:nodetypes="cc"/><ellipse id="shape03" transform="matrix(1.36439252865217 -0.101141618225569 0.113721018497775 1.43714731614986 13.1124443827776 70.5635957104102)" rx="9.54000027161212" ry="8.76000120202809" cx="9.54000027161212" cy="8.76000120202809" fill="#ffffff" fill-rule="evenodd" stroke="#000000" stroke-width="0.48" stroke-linecap="square" stroke-linejoin="bevel"/><ellipse id="shape212" transform="matrix(1.36439252865217 -0.101141618225569 0.113721018497775 1.43714731614986 22.8073324546407 80.7658891017685)" rx="2.52" ry="3.12" cx="2.52" cy="3.12" fill="#000000" fill-rule="evenodd" stroke="#000000" stroke-width="1.2" stroke-linecap="square" stroke-linejoin="bevel"/><path id="shape311" transform="matrix(1.36439252865217 -0.101141618225569 0.113721018497775 1.43714731614986 29.3810579146572 81.5399705589996)" fill="none" stroke="#7a0800" stroke-width="0.24" stroke-linecap="square" stroke-linejoin="bevel" d="M0 0C1.44958 0 2.12886 0.63 3.48 0.63" sodipodi:nodetypes="cc"/><path id="shape411" transform="matrix(1.36439252865217 -0.101141618225569 0.113721018497775 1.43714731614986 30.4865381374438 86.6483665757904)" fill="none" stroke="#7a0800" stroke-width="0.24" stroke-linecap="square" stroke-linejoin="bevel" d="M0 0C0.579938 0 1.15628 1.95 3.12 1.95" sodipodi:nodetypes="cc"/><path id="shape511" transform="matrix(1.36439252865217 -0.101141618225569 0.113721018497775 1.43714731614986 32.7380456869529 87.5085456373833)" fill="none" stroke="#7a0800" stroke-width="0.24" stroke-linecap="square" stroke-linejoin="bevel" d="M0 0.57C0.557574 0.57 1.57234 0 2.16 0" sodipodi:nodetypes="cc"/><path id="shape611" transform="matrix(1.36439252865217 -0.101141618225569 0.113721018497775 1.43714731614986 28.9284991705366 89.8017417606154)" fill="none" stroke="#7a0800" stroke-width="0.24" stroke-linecap="square" stroke-linejoin="bevel" d="M0 0C1.02859 0 0.652676 2.03268 1.38 2.76" sodipodi:nodetypes="cc"/><path id="shape711" transform="matrix(1.36439252865217 -0.101141618225569 0.113721018497775 1.43714731614986 27.8984722621362 91.8737503476352)" fill="none" stroke="#7a0800" stroke-width="0.24" stroke-linecap="square" stroke-linejoin="bevel" d="M1.77 0.0294765C1.52853 -0.211996 0.481732 1.10948 0 1.10948" sodipodi:nodetypes="cc"/><path id="shape811" transform="matrix(1.36439252865217 -0.101141618225569 0.113721018497775 1.43714731614986 27.3273185852695 75.8947328078441)" fill="none" stroke="#7a0800" stroke-width="0.24" stroke-linecap="square" stroke-linejoin="bevel" d="M0 2.46C0 4.00548 2.38452 0 3.93 0" sodipodi:nodetypes="cc"/><path id="shape95" transform="matrix(1.36439252865217 -0.101141618225569 0.113721018497775 1.43714731614986 27.2113309374685 74.9492498299095)" fill="none" stroke="#7a0800" stroke-width="0.24" stroke-linecap="square" stroke-linejoin="bevel" d="M0.78 2.79C0.78 1.6143 0 0.990548 0 0" sodipodi:nodetypes="cc"/><path id="shape102" transform="matrix(1.36439252865217 -0.101141618225569 0.113721018497775 1.43714731614986 24.253841246768 75.3419560929779)" fill="none" stroke="#7a0800" stroke-width="0.24" stroke-linecap="square" stroke-linejoin="bevel" d="M0.437626 2.94C-0.596443 2.94 0.393557 0 1.42763 0" sodipodi:nodetypes="cc"/><path id="shape112" transform="matrix(1.36439252865217 -0.101141618225569 0.113721018497775 1.43714731614986 21.989143477107 78.1550239073297)" fill="none" stroke="#7a0800" stroke-width="0.24" stroke-linecap="square" stroke-linejoin="bevel" d="M1.83 0.540152C1.4866 0.540152 0 -0.21444 0 0.060152" sodipodi:nodetypes="cc"/><path id="shape122" transform="matrix(1.36439252865217 -0.101141618225569 0.113721018497775 1.43714731614986 18.4111100928553 77.5569902880436)" fill="none" stroke="#7a0800" stroke-width="0.24" stroke-linecap="square" stroke-linejoin="bevel" d="M2.90137 3.39C1.06725 3.39 -0.674845 0 0.261368 0" sodipodi:nodetypes="cc"/><path id="shape132" transform="matrix(1.36439252865217 -0.101141618225569 0.113721018497775 1.43714731614986 17.7970835979195 81.3712960490082)" fill="none" stroke="#7a0800" stroke-width="0.24" stroke-linecap="square" stroke-linejoin="bevel" d="M1.86 0.000216426C1.67401 -0.0115866 0 0.462737 0 0.600216" sodipodi:nodetypes="cc"/><path id="shape142" transform="matrix(1.36439252865217 -0.101141618225569 0.113721018497775 1.43714731614986 16.8849861096086 85.8395469395428)" fill="none" stroke="#7a0800" stroke-width="0.24" stroke-linecap="square" stroke-linejoin="bevel" d="M3.75 0C2.60943 0 0 1.97729 0 1.53" sodipodi:nodetypes="cc"/><path id="shape152" transform="matrix(1.36439252865217 -0.101141618225569 0.113721018497775 1.43714731614986 18.9245304525927 87.1765792173495)" fill="none" stroke="#7a0800" stroke-width="0.24" stroke-linecap="square" stroke-linejoin="bevel" d="M0.27 0C0.27 0.852332 0.618917 1.51108 0 2.13" sodipodi:nodetypes="cc"/><path id="shape162" transform="matrix(1.36439252865217 -0.101141618225569 0.113721018497775 1.43714731614986 20.8005999280783 89.0324039597822)" fill="none" stroke="#7a0800" stroke-width="0.24" stroke-linecap="square" stroke-linejoin="bevel" d="M2.22 0C1.0158 0 0 1.6458 0 2.85" sodipodi:nodetypes="cc"/><path id="shape172" transform="matrix(1.36439252865217 -0.101141618225569 0.113721018497775 1.43714731614986 22.1309098289565 90.7552162636194)" fill="none" stroke="#7a0800" stroke-width="0.24" stroke-linecap="square" stroke-linejoin="bevel" d="M0 0C0.566685 0 0.96 0.797799 0.96 1.26" sodipodi:nodetypes="cc"/><path id="shape182" transform="matrix(1.36439252865217 -0.101141618225569 0.113721018497775 1.43714731614986 25.4938940673363 90.6063885107716)" fill="none" stroke="#7a0800" stroke-width="0.24" stroke-linecap="square" stroke-linejoin="bevel" d="M0.63 0C0.63 0.709164 0 1.69212 0 2.01" sodipodi:nodetypes="cc"/><path id="shape192" transform="matrix(1.36439252865217 -0.101141618225569 0.113721018497775 1.43714731614986 30.4167145951547 90.398229502753)" fill="none" stroke="#7a0800" stroke-width="0.24" stroke-linecap="square" stroke-linejoin="bevel" d="M0 0.111055C0 -0.119919 0.765194 0.0810546 0.78 0.0810546" sodipodi:nodetypes="cc"/><path id="shape202" transform="matrix(1.36439252865217 -0.101141618225569 0.113721018497775 1.43714731614986 30.7079639759911 83.740075696166)" fill="none" stroke="#7a0800" stroke-width="0.24" stroke-linecap="square" stroke-linejoin="bevel" d="M0 0.96C0 0.383112 0.863112 0 1.44 0" sodipodi:nodetypes="cc"/><path id="shape213" transform="matrix(1.36439252865217 -0.101141618225569 0.113721018497775 1.43714731614986 31.7550696043442 79.2823551536093)" fill="none" stroke="#7a0800" stroke-width="0.24" stroke-linecap="square" stroke-linejoin="bevel" d="M0 1.53C0.697971 1.53 0.695168 0 1.77 0" sodipodi:nodetypes="cc"/><path id="shape222" transform="matrix(1.36439252865217 -0.101141618225569 0.113721018497775 1.43714731614986 18.8531005994461 84.1757992430709)" fill="none" stroke="#7a0800" stroke-width="0.24" stroke-linecap="square" stroke-linejoin="bevel" d="M2.22 1.05C2.5915 0.519293 0.102632 0 0 0" sodipodi:nodetypes="cc"/><path id="shape232" transform="matrix(1.36439252865217 -0.101141618225569 0.113721018497775 1.43714731614986 22.2912925720839 79.394349877906)" fill="none" stroke="#7a0800" stroke-width="0.24" stroke-linecap="square" stroke-linejoin="bevel" d="M0.180001 1.92C0.411995 1.50241 0 0.524954 0 0" sodipodi:nodetypes="cc"/><path id="shape242" transform="matrix(1.36439252865217 -0.101141618225569 0.113721018497775 1.43714731614986 20.6540215902667 79.5157198158801)" fill="none" stroke="#7a0800" stroke-width="0.24" stroke-linecap="square" stroke-linejoin="bevel" d="M1.2 0C1.13927 0.789527 0.299399 0.36 0 0.36" sodipodi:nodetypes="cc"/><path id="shape252" transform="matrix(1.36439252865217 -0.101141618225569 0.113721018497775 1.43714731614986 23.0320247435708 75.3349453732389)" fill="none" stroke="#7a0800" stroke-width="0.24" stroke-linecap="square" stroke-linejoin="bevel" d="M1.215 0.3375C0.917778 0.0402785 0 0.420335 0 0" sodipodi:nodetypes="cc"/><path id="shape262" transform="matrix(1.36439252865217 -0.101141618225569 0.113721018497775 1.43714731614986 28.8775785269556 73.893327732327)" fill="none" stroke="#7a0800" stroke-width="0.24" stroke-linecap="square" stroke-linejoin="bevel" d="M1.3725 1.5975C1.13834 1.36334 0.358743 0 0 0" sodipodi:nodetypes="cc"/><path id="shape272" transform="matrix(1.36439252865217 -0.101141618225569 0.113721018497775 1.43714731614986 29.9853594035968 78.1370986529314)" fill="none" stroke="#7a0800" stroke-width="0.24" stroke-linecap="square" stroke-linejoin="bevel" d="M0 0C0.195897 0 1.44 0.611133 1.44 0.7875" sodipodi:nodetypes="cc"/><path id="shape282" transform="matrix(1.36439252865217 -0.101141618225569 0.113721018497775 1.43714731614986 31.4186665436379 86.9813289947328)" fill="none" stroke="#7a0800" stroke-width="0.24" stroke-linecap="square" stroke-linejoin="bevel" d="M0 0.0518687C0.197306 0.0518687 0.891761 -0.0648358 0.6 0.0518687" sodipodi:nodetypes="cc"/><path id="shape292" transform="matrix(1.36439252865217 -0.101141618225569 0.113721018497775 1.43714731614986 30.0994719996795 87.966849139583)" fill="none" stroke="#7a0800" stroke-width="0.24" stroke-linecap="square" stroke-linejoin="bevel" d="M0 0.0487674C0.332014 -0.283247 0.876958 1.18877 1.35 1.18877" sodipodi:nodetypes="cc"/><path id="shape302" transform="matrix(1.36439252865217 -0.101141618225569 0.113721018497775 1.43714731614986 31.9205795303459 84.2356513775067)" fill="none" stroke="#7a0800" stroke-width="0.24" stroke-linecap="square" stroke-linejoin="bevel" d="M0 0C0 0.574668 0.945 0.449691 0.945 0.585" sodipodi:nodetypes="cc"/>
</svg>
