<?xml version="1.0" standalone="no"?>
<!DOCTYPE svg PUBLIC "-//W3C//DTD SVG 20010904//EN" "http://www.w3.org/TR/2001/REC-SVG-20010904/DTD/svg10.dtd">
<!-- Created using Krita: https://krita.org -->
<svg xmlns="http://www.w3.org/2000/svg" 
    xmlns:xlink="http://www.w3.org/1999/xlink"
    xmlns:krita="http://krita.org/namespaces/svg/krita"
    xmlns:sodipodi="http://sodipodi.sourceforge.net/DTD/sodipodi-0.dtd"
    width="240pt"
    height="240pt"
    viewBox="0 0 240 240">
<defs/>
<path id="shape0" transform="translate(21.4799997740605, 98.0914273337433)" fill="#4b3a1f" fill-rule="evenodd" stroke="#000000" stroke-width="2.4" stroke-linecap="square" stroke-linejoin="bevel" d="M0 9.90857L95.04 44.2286L198.3 37.2686L80.7 0.00857143C79.18 -0.191429 52.28 3.10857 0 9.90857Z" sodipodi:nodetypes="ccccc"/><path id="shape1" transform="translate(20.5799991040446, 107.939995435682)" fill="#47371f" fill-rule="evenodd" stroke="#000000" stroke-width="2.4" stroke-linecap="square" stroke-linejoin="bevel" d="M1.53 0C1.02 23.76 0.51 47.52 0 71.28L94.86 106.56L95.94 34.23C96.48 33.85 65.01 22.44 1.53 0Z" sodipodi:nodetypes="ccccc"/><path id="shape2" transform="translate(115.649991659192, 135.104990248923)" fill="#43341c" fill-rule="evenodd" stroke="#000000" stroke-width="2.4" stroke-linecap="square" stroke-linejoin="bevel" d="M103.86 71.955L103.5 0L1.53 6.885L0 79.155C0.12 79.755 34.74 77.355 103.86 71.955Z" sodipodi:nodetypes="ccccc"/><path id="shape3" transform="translate(24.239998251786, 98.1599987356267)" fill="#cbcd16" fill-rule="evenodd" stroke="#000000" stroke-width="1.2" stroke-linecap="square" stroke-linejoin="bevel" d="M12 10.92L77.28 3.72L176.28 34.44L92.64 38.76L92.4 43.8L194.04 36.84L77.16 0L0 9.83999L92.64 43.8L92.4 38.88C91.76 38.48 64.96 29.16 12 10.92Z" sodipodi:nodetypes="ccccccccccc"/><path id="shape4" transform="translate(20.9699984983516, 109.259992120062)" fill="#cbcd16" fill-rule="evenodd" stroke="#000000" stroke-width="1.2" stroke-linecap="square" stroke-linejoin="bevel" d="M5.37 5.13L90.99 35.7L90.39 98.7L4.32 66.15L0 69.57L94.77 105.12L95.55 33.42L1.74 0L0.03 68.94L4.35 65.94C4.23 65.88 4.57 45.61 5.37 5.13Z" sodipodi:nodetypes="ccccccccccc"/><path id="shape5" transform="translate(116.279995079189, 136.01999423309)" fill="#cbcd16" fill-rule="evenodd" stroke="#000000" stroke-width="1.2" stroke-linecap="square" stroke-linejoin="bevel" d="M5.94 11.67L98.28 5.82L98.46 66.48L5.94 72.96L0 78.54L103.02 71.1L103.14 0L1.5 6.72L0.18 78L5.76 72.96C5.76 73.98 5.82 53.55 5.94 11.67Z" sodipodi:nodetypes="ccccccccccc"/><path id="shape6" transform="translate(111.119998609193, 207.719997400121)" fill="none" stroke="#000000" stroke-width="1.2" stroke-linecap="square" stroke-linejoin="bevel" d="M0 0L4.5 6.6" sodipodi:nodetypes="cc"/><path id="shape7" transform="translate(111.479998604687, 142.559998215682)" fill="none" stroke="#000000" stroke-width="1.2" stroke-linecap="square" stroke-linejoin="bevel" d="M0 2.52L5.4 0L10.92 5.16" sodipodi:nodetypes="ccc"/><path id="shape8" transform="translate(22.079999723641, 108.23999864524)" fill="none" stroke="#000000" stroke-width="1.2" stroke-linecap="square" stroke-linejoin="bevel" d="M4.32 6.12L0 0" sodipodi:nodetypes="cc"/><path id="shape9" transform="translate(24.9599996875941, 107.759998651248)" fill="none" stroke="#000000" stroke-width="1.2" stroke-linecap="square" stroke-linejoin="bevel" d="M0 0L11.64 1.32" sodipodi:nodetypes="cc"/><path id="shape10" transform="translate(101.399998730851, 97.5599987789136)" fill="none" stroke="#000000" stroke-width="1.2" stroke-linecap="square" stroke-linejoin="bevel" d="M0 4.08L0.12 0" sodipodi:nodetypes="cc"/><path id="shape11" transform="translate(199.679985598899, 132.239990462732)" fill="none" stroke="#000000" stroke-width="1.2" stroke-linecap="square" stroke-linejoin="bevel" d="M0 0L18.12 2.64" sodipodi:nodetypes="cc"/><path id="shape12" transform="translate(214.439990925204, 135.839994251445)" fill="none" stroke="#000000" stroke-width="1.2" stroke-linecap="square" stroke-linejoin="bevel" d="M0 6L5.04 0" sodipodi:nodetypes="cc"/><path id="shape13" transform="translate(214.319990930284, 201.959991453341)" fill="none" stroke="#000000" stroke-width="1.2" stroke-linecap="square" stroke-linejoin="bevel" d="M0 0L4.92 5.04" sodipodi:nodetypes="cc"/><path id="shape14" transform="translate(45.2347675590365, 121.919998474074)" fill="#cbcd16" fill-rule="evenodd" stroke="#000000" stroke-width="1.2" stroke-linecap="square" stroke-linejoin="bevel" d="M0.00523187 0C-0.0441833 2.21733 0.231149 4.46417 1.92523 6.84C4.71942 7.33231 7.24113 7.27965 11.0956 9.89258L13.0403 13.7125C14.0734 14.8262 15.6002 15.1994 17.2686 15.3602L24.8072 14.2835C30.2425 15.1718 31.7036 16.8053 34.8652 18.12C41.5915 15.3799 40.2636 15.3696 42.0652 14.1C41.9452 14.3 27.9252 9.6 0.00523187 0Z" sodipodi:nodetypes="ccccccccc"/><ellipse id="shape15" transform="translate(60.8475000839292, 129.337500079003)" rx="1.87124859718409" ry="1.90499714680075" cx="1.87124859718409" cy="1.90499714680075" fill="#000000" fill-rule="evenodd" stroke="#cbcd16" stroke-width="1.2" stroke-linecap="square" stroke-linejoin="bevel"/><path id="shape16" transform="matrix(0.99096134777907 -0.134147706681446 0.134147706681446 0.99096134777907 60.0931136201752 132.316944331032)" fill="#000000" fill-rule="evenodd" stroke="#000000" stroke-width="1.2" stroke-linecap="square" stroke-linejoin="bevel" d="M2.50303 0L0 1.34915L3.20617 2.56253C3.33741 2.72918 3.10303 1.875 2.50303 0Z" sodipodi:nodetypes="cccc"/><path id="shape17" transform="translate(134.339998179162, 146.999998160188)" fill="none" stroke="#000000" stroke-width="1.2" stroke-linecap="square" stroke-linejoin="bevel" d="M0.96 0L0 60.84" sodipodi:nodetypes="cc"/><path id="shape18" transform="translate(146.699998024468, 146.759998163192)" fill="none" stroke="#000000" stroke-width="1.2" stroke-linecap="square" stroke-linejoin="bevel" d="M1.08 0L0 60.36" sodipodi:nodetypes="cc"/><path id="shape19" transform="translate(159.29999786677, 145.199998182716)" fill="none" stroke="#000000" stroke-width="1.2" stroke-linecap="square" stroke-linejoin="bevel" d="M0.72 0L0 61.2" sodipodi:nodetypes="cc"/><path id="shape20" transform="translate(171.179997718083, 145.079998184218)" fill="none" stroke="#000000" stroke-width="1.2" stroke-linecap="square" stroke-linejoin="bevel" d="M0.84 0L0 59.52" sodipodi:nodetypes="cc"/><path id="shape21" transform="translate(182.339997578408, 144.479998191728)" fill="none" stroke="#000000" stroke-width="1.2" stroke-linecap="square" stroke-linejoin="bevel" d="M0.84 0L0 60.12" sodipodi:nodetypes="cc"/><path id="shape22" transform="translate(194.099997431222, 143.279998206747)" fill="none" stroke="#000000" stroke-width="1.2" stroke-linecap="square" stroke-linejoin="bevel" d="M0.48 0L0 60.6" sodipodi:nodetypes="cc"/><path id="shape23" transform="translate(204.899997296053, 142.559998215758)" fill="none" stroke="#000000" stroke-width="1.2" stroke-linecap="square" stroke-linejoin="bevel" d="M0.24 0L0 60.24" sodipodi:nodetypes="cc"/><path id="shape24" transform="translate(26.9399980642298, 127.499991054993)" fill="none" stroke="#000000" stroke-width="1.2" stroke-linecap="square" stroke-linejoin="bevel" d="M0 0L84.24 28.08" sodipodi:nodetypes="cc"/><path id="shape25" transform="translate(26.3999980978104, 137.489990374743)" fill="none" stroke="#000000" stroke-width="1.2" stroke-linecap="square" stroke-linejoin="bevel" d="M0 0L85.02 29.73" sodipodi:nodetypes="cc"/><path id="shape26" transform="translate(25.8599981421198, 147.839989588064)" fill="none" stroke="#000000" stroke-width="1.2" stroke-linecap="square" stroke-linejoin="bevel" d="M0 0L85.89 30.9" sodipodi:nodetypes="cc"/><path id="shape27" transform="translate(25.9199981377927, 157.799988869746)" fill="none" stroke="#000000" stroke-width="1.2" stroke-linecap="square" stroke-linejoin="bevel" d="M0 0L85.08 30.57" sodipodi:nodetypes="cc"/><path id="shape28" transform="translate(24.9599989473179, 168.719992985269)" fill="none" stroke="#000000" stroke-width="1.2" stroke-linecap="square" stroke-linejoin="bevel" d="M0 0L85.56 29.64" sodipodi:nodetypes="cc"/><path id="shape29" transform="translate(24.8665251086032, 92.600860620427)" fill="#50485e" fill-rule="evenodd" stroke="#000000" stroke-width="1.2" stroke-linecap="square" stroke-linejoin="bevel" d="M18.6616 9.07505C10.2315 8.85638 4.72145 11.1523 2.13157 15.9627C-1.75324 23.1783 0.535162 23.1204 2.23477 34.0602C3.93437 45.0001 54.0789 73.5559 56.8025 84.4812C59.5261 95.4066 51.0089 104.208 40.5684 99.0873C30.128 93.9666 12.0939 82.2664 12.3367 87.3871C12.5795 92.5079 18.8672 114.878 25.18 117.904C31.4928 120.93 41.4224 133.772 64.4885 133.539C87.5546 133.306 96.6025 127.067 105.279 121.752C113.956 116.438 118.735 108.939 120.879 96.9048C123.023 84.8707 100.677 62.0598 90.8384 50.1043C87.9646 46.95 79.8645 40.4871 85.3538 46.2646C90.8432 52.042 164.44 45.9072 170.803 45.1728C177.167 44.4384 193.35 43.9897 187.389 37.621C181.428 31.2523 54.1582 2.2918 42.2609 1.12799C30.3637 -0.0358233 34.4437 -2.79582 18.6616 9.07505Z" sodipodi:nodetypes="czzzzzzzzzczzzcc"/><path id="shape30" transform="translate(23.8799982777712, 94.4399931889747)" fill="#ffffff" fill-rule="evenodd" stroke="#000000" stroke-width="1.2" stroke-linecap="square" stroke-linejoin="bevel" d="M0 0L0.48 10.86C3.0941 7.33066 5.37591 4.96431 7.68 2.52C7.98102 6.04 8.51356 9.56 8.22 13.08C10.7386 10.6372 13.4043 8.4886 16.08 6.36C17.4321 10.052 19.0389 13.6803 19.8 17.52C21.7343 14.3533 23.8661 11.6475 26.28 9.6C27.845 13.4858 29.0339 17.4343 29.64 21.48C31.9526 18.4028 34.3677 15.8388 36.84 13.56C37.9541 17.8039 39.0633 22.0476 39.24 26.76C41.8733 23.915 44.546 21.0995 48.12 18.96C48.5402 22.7251 48.8837 26.4709 48.36 30C51.7307 26.8372 54.8166 24.8134 57.96 22.56C59.3489 26.6828 59.3204 31.1599 58.8 35.76C61.48 32.1178 64.16 27.7726 66.84 25.44C68.7352 30.4 69.9376 35.36 71.4 40.32C73.7375 36.4899 76.1301 32.4394 78.24 29.52C79.8236 34.76 80.2266 40 80.64 45.24C83.32 41.4215 86 37.5653 88.68 34.68C88.9331 38.8871 89.9317 42.856 91.32 46.92C93.0796 43.08 94.3546 39.24 98.4 35.4C98.4 35.4 65.6 23.6 0 0Z" sodipodi:nodetypes="cccccccccccccccccccccc"/><path id="shape31" transform="translate(122.219998470359, 131.219998357719)" fill="#ffffff" fill-rule="evenodd" stroke="#000000" stroke-width="1.2" stroke-linecap="square" stroke-linejoin="bevel" d="M0 0C2.41278 3.97062 2.58586 7.44353 3.72 11.13C5.9581 7.17107 8.55209 3.47907 11.43 0C13.8581 3.09 15.5613 6.18 16.71 9.27C18.5662 6.3 20.4216 3.33 22.59 0.36C24.666 3.35849 26.8556 6.32859 28.32 9.47999C30.0768 6.48837 31.9439 3.55196 34.02 0.719992C36.1913 3.72217 39.2832 6.49419 40.32 9.77999C41.88 7.91999 42.84 3.59999 44.4 1.73999C46.5617 4.12365 48.3779 6.5764 49.74 9.11999C51.64 5.74412 53.54 3.76473 55.44 1.61999C57.3456 3.71437 59.1694 5.89054 60.6 8.45999C60.8459 5.80995 62.86 3.83999 65.16 1.97999C66.7864 4.00401 68.9022 4.80458 69.96 8.24999L76.86 1.97999C76.86 1.97999 51.24 1.31999 0 0Z" sodipodi:nodetypes="cccccccccccccccc"/><path id="shape32" transform="matrix(0.994467541798318 0.105044315931962 -0.105044315931962 0.994467541798318 30.269722911295 33.5807441961458)" fill="#43341c" fill-rule="evenodd" stroke="#000000" stroke-width="2.4" stroke-linecap="square" stroke-linejoin="bevel" d="M0 60.4165L95.0659 86.2388C106.388 39.8367 123.263 16.5854 145.693 16.4847C150.787 16.4619 153.618 16.6975 154.186 17.1916C157.55 15.5378 136.117 11.2165 89.8873 4.22764C56.5029 -0.317341 40.1704 -1.19772 40.8899 1.58652C18.91 4.08652 5.28 23.6965 0 60.4165Z" sodipodi:nodetypes="cczcccc"/><path id="shape33" transform="matrix(0.994467541798318 0.105044315931962 -0.105044315931962 0.994467541798318 123.330123398148 58.8781058802921)" fill="#47371f" fill-rule="evenodd" stroke="#000000" stroke-width="2.4" stroke-linecap="square" stroke-linejoin="bevel" d="M0 70.8228L102.48 63.3828C96.6644 38.601 90.1744 22.211 83.01 14.2128C72.2634 2.21544 61.5202 -1.26111 49.74 0.382772C37.9598 2.02666 18.63 13.1928 10.35 34.4328C2.09886 55.668 3.4327 55.7307 0 70.8228Z" sodipodi:nodetypes="cczzcc"/><path id="shape34" transform="matrix(0.994467541798318 0.105044315931962 -0.105044315931962 0.994467541798318 123.474640970118 59.0807396806865)" fill="#cbcd16" fill-rule="evenodd" stroke="#000000" stroke-width="1.2" stroke-linecap="square" stroke-linejoin="bevel" d="M5.325 67.0064L97.605 60.4964C91.9985 42.0208 87.1585 29.6208 83.085 23.2964C76.9747 13.81 71.0087 8.18765 60.045 5.77644C49.0813 3.36524 36.0398 11.9691 29.685 17.0564C23.3302 22.1437 16.7082 35.5671 14.085 42.3164C12.641 46.0317 10.6733 52.3026 8.18189 61.129C7.68958 64.3355 7.04229 66.2846 6.24 66.9764L0 71.5364C1.15908 66.279 2.65408 60.039 4.485 52.8164C7.23137 41.9826 16.7125 20.9327 22.44 15.9464C23.186 15.297 24.0838 14.0973 24.6148 13.5956C28.1609 10.2453 27.3023 10.8264 28.6035 10.0331C31.1908 6.44376 38.7299 3.25124 41.8672 2.67751C47.0462 0.354239 52.7936 -0.471307 59.625 0.256442C68.0688 1.15596 76.3288 6.17596 84.405 15.3164C89.6253 22.9056 92.5653 28.3056 93.225 31.5164C97.538 43.3285 100.108 51.3485 100.935 55.5764C101.762 59.8044 102.372 62.6844 102.765 64.2164L0.135 71.5064C0.315 71.1464 2.045 69.6464 5.325 67.0064Z" sodipodi:nodetypes="cczzzzccczzccczcczccc"/><path id="shape35" transform="matrix(0.994467541798318 0.105044315931962 -0.105044315931962 0.994467541798318 29.7593582192365 33.3834501429763)" fill="#cbcd16" fill-rule="evenodd" stroke="#000000" stroke-width="1.2" stroke-linecap="square" stroke-linejoin="bevel" d="M41.4963 3.27551C35.1577 4.80983 29.3535 7.65005 24.0837 11.7962C16.1789 18.0154 10.805 30.243 7.80085 42.3816C5.79806 50.474 4.8436 55.1189 4.93748 56.3165L92.7478 78.9222C98.3367 56.2123 103.591 41.8573 108.511 35.8573C115.891 26.8573 116.761 25.9573 124.321 20.7373C129.361 17.2573 134.731 14.5873 140.431 12.7273L150.331 14.6173C142.373 16.5702 136.133 18.6702 131.611 20.9173C124.829 24.2879 112.248 36.4359 105.871 51.6073C101.62 61.7216 98.3941 73.253 96.1941 86.2014L0 59.7027L0.856515 52.9692C3.06943 41.2127 5.21164 33.4103 7.28315 29.5621C10.4049 22.1417 12.7741 17.5023 14.3907 15.6439C17.56 11.8794 19.3552 9.71661 19.7763 9.15552C20.408 8.31388 32.6533 -0.0961361 42.6945 0.000831978C49.3885 0.0654773 51.4927 0.545256 49.0071 1.44017C46.9599 1.78373 44.4563 2.39552 41.4963 3.27551Z" sodipodi:nodetypes="czzcczzcczzccccczzcc"/><path id="shape36" transform="matrix(0.994467541798318 0.105044315931962 -0.105044315931962 0.994467541798318 32.9395912156613 80.5307808191411)" fill="none" stroke="#000000" stroke-width="1.2" stroke-linecap="square" stroke-linejoin="bevel" d="M0 0L87.4503 19.6657" sodipodi:nodetypes="cc"/><path id="shape37" transform="matrix(0.994467541798318 0.105044315931962 -0.105044315931962 0.994467541798318 37.1918198069307 67.5548197706813)" fill="none" stroke="#000000" stroke-width="1.2" stroke-linecap="square" stroke-linejoin="bevel" d="M0 0L89.9403 16.4257" sodipodi:nodetypes="cc"/><path id="shape38" transform="matrix(0.994467541798318 0.105044315931962 -0.105044315931962 0.994467541798318 43.2591737667643 57.1692986978267)" fill="none" stroke="#000000" stroke-width="1.2" stroke-linecap="square" stroke-linejoin="bevel" d="M0 0L90.5775 15.7811" sodipodi:nodetypes="cc"/><path id="shape39" transform="matrix(0.994467541798318 0.105044315931962 -0.105044315931962 0.994467541798318 52.1563868069938 48.3350258108607)" fill="none" stroke="#000000" stroke-width="1.2" stroke-linecap="square" stroke-linejoin="bevel" d="M0 0L91.5675 14.7911" sodipodi:nodetypes="cc"/><path id="shape40" transform="matrix(0.994467541798318 0.105044315931962 -0.105044315931962 0.994467541798318 64.3500631069384 42.6839745945296)" fill="none" stroke="#000000" stroke-width="1.2" stroke-linecap="square" stroke-linejoin="bevel" d="M0 0L91.3749 13.5918" sodipodi:nodetypes="cc"/><path id="shape41" transform="matrix(0.994467541798318 0.105044315931962 -0.105044315931962 0.994467541798318 213.907071907862 128.983319396114)" fill="none" stroke="#000000" stroke-width="1.2" stroke-linecap="square" stroke-linejoin="bevel" d="M0 0L5.4 3.78" sodipodi:nodetypes="cc"/><path id="shape42" transform="translate(112.319991863667, 122.039990837211)" fill="none" stroke="#000000" stroke-width="1.2" stroke-linecap="square" stroke-linejoin="bevel" d="M3.6 5.88L0 0" sodipodi:nodetypes="cc"/><path id="shape43" transform="matrix(0.994467541798318 0.105044315931962 -0.105044315931962 0.994467541798318 23.5427533533927 89.0072736012411)" fill="none" stroke="#000000" stroke-width="1.2" stroke-linecap="square" stroke-linejoin="bevel" d="M0 4.03726L4.79739 0" sodipodi:nodetypes="cc"/><path id="shape44" transform="matrix(0.994467541798318 0.105044315931962 -0.105044315931962 0.994467541798318 142.779641668138 86.6576242210442)" fill="none" stroke="#000000" stroke-width="1.2" stroke-linecap="square" stroke-linejoin="bevel" d="M0 40.08C0.52 29.76 0.44 10.32 0.96 0" sodipodi:nodetypes="cc"/><path id="shape45" transform="matrix(0.994467541798318 0.105044315931962 -0.105044315931962 0.994467541798318 154.330817761878 77.2590132732544)" fill="none" stroke="#000000" stroke-width="1.2" stroke-linecap="square" stroke-linejoin="bevel" d="M0.6 0L0 49.8" sodipodi:nodetypes="cc"/><path id="shape46" transform="matrix(0.994467541798318 0.105044315931962 -0.105044315931962 0.994467541798318 165.142467724122 72.0056520872583)" fill="none" stroke="#000000" stroke-width="1.2" stroke-linecap="square" stroke-linejoin="bevel" d="M0.84 0L0 55.56" sodipodi:nodetypes="cc"/><path id="shape47" transform="matrix(0.994467541798318 0.105044315931962 -0.105044315931962 0.994467541798318 176.291974776829 70.4080056906966)" fill="none" stroke="#000000" stroke-width="1.2" stroke-linecap="square" stroke-linejoin="bevel" d="M0.48 0L0 57.72" sodipodi:nodetypes="cc"/><path id="shape48" transform="matrix(0.994467541798318 0.105044315931962 -0.105044315931962 0.994467541798318 186.761623573631 72.9619120378337)" fill="none" stroke="#000000" stroke-width="1.2" stroke-linecap="square" stroke-linejoin="bevel" d="M0 0L0.24 54.96" sodipodi:nodetypes="cc"/><path id="shape49" transform="matrix(0.994467541798318 0.105044315931962 -0.105044315931962 0.994467541798318 196.061464355183 79.7362859151166)" fill="none" stroke="#000000" stroke-width="1.2" stroke-linecap="square" stroke-linejoin="bevel" d="M0 0L0.72 48.96" sodipodi:nodetypes="cc"/><path id="shape50" transform="matrix(0.994467541798318 0.105044315931962 -0.105044315931962 0.994467541798318 205.257976131201 94.3431378625618)" fill="none" stroke="#000000" stroke-width="1.2" stroke-linecap="square" stroke-linejoin="bevel" d="M0 0C0.2 8.6 0.64 25.72 0.84 34.32" sodipodi:nodetypes="cc"/>
</svg>
