<?xml version="1.0" standalone="no"?>
<!DOCTYPE svg PUBLIC "-//W3C//DTD SVG 20010904//EN" "http://www.w3.org/TR/2001/REC-SVG-20010904/DTD/svg10.dtd">
<!-- Created using Krita: https://krita.org -->
<svg xmlns="http://www.w3.org/2000/svg" 
    xmlns:xlink="http://www.w3.org/1999/xlink"
    xmlns:krita="http://krita.org/namespaces/svg/krita"
    xmlns:sodipodi="http://sodipodi.sourceforge.net/DTD/sodipodi-0.dtd"
    width="240pt"
    height="240pt"
    viewBox="0 0 240 240">
<defs/>
<path id="shape0" transform="translate(71.4899978878991, 133.784995843534)" fill="none" stroke="#000000" stroke-width="0.96" stroke-linecap="square" stroke-linejoin="bevel" d="M2.58 1.38L2.34 4.86L3.42 8.34L5.16 9.96L4.92 2.28L5.22 9.6L6.9 10.68L7.8 11.04L6.72 8.28L6.72 2.58L6.84 8.16L8.52 11.22L10.62 12.06L8.7 7.26L9.06 3.24L9.12 7.62L10.56 10.92L12.48 11.64L11.04 7.38L11.46 3.84L1.08 0L0 3.48L0.6 6.48L2.4 8.34L3.54 8.64L2.61 4.155C2.19 4.065 2.18 3.14 2.58 1.38Z" sodipodi:nodetypes="ccccccccccccccccccccccccccc"/><path id="shape1" transform="translate(81.9599974955428, 139.827465606801)" fill="#ffffff" fill-rule="evenodd" stroke="#000000" stroke-width="2.4" stroke-linecap="square" stroke-linejoin="bevel" d="M0 8.13253C2.56 3.41253 3.24 0.73253 2.04 0.0925301C0.84 -0.54747 0.16 2.13253 0 8.13253Z" sodipodi:nodetypes="ccc"/><path id="shape2" transform="translate(75.7499954277702, 177.14998930732)" fill="#44281e" fill-rule="evenodd" stroke="#000000" stroke-width="1.2" stroke-linecap="square" stroke-linejoin="bevel" d="M13.02 0.36L14.55 13.5C7.05 13.92 2.64 15.09 1.32 17.01C-1.88738e-14 18.93 -0.33 21.03 0.33 23.31L2.01 25.83C22.97 27.75 34.26 27.03 35.88 23.67C38.31 18.63 34.35 14.49 34.35 11.79C34.35 9.99 34.74 6.39 35.52 0.99L12.12 0C12.12 0 12.42 0.12 13.02 0.36Z" sodipodi:nodetypes="cczcczzccc"/><path id="shape3" transform="translate(116.009996455063, 159.119999890617)" fill="#ab7e6a" fill-rule="evenodd" stroke="#000000" stroke-width="1.2" stroke-linecap="square" stroke-linejoin="bevel" d="M1.29056 0C0.669484 1.74422 0.541616 2.99921 0.906954 3.76497C1.45496 4.9136 -0.243863 5.10504 0.0301411 7.72137C0.212811 9.4656 0.340679 11.2736 0.413747 13.1455C12.9083 14.1239 19.5575 14.3154 20.3613 13.7198C21.5669 12.8264 23.2657 9.25289 22.7725 8.10425C22.2793 6.95562 21.1285 7.40231 21.4025 6.18986C21.5851 5.38156 21.7313 4.19039 21.8409 2.61633C21.8409 2.61633 14.9908 1.74422 1.29056 0Z" sodipodi:nodetypes="czzczzzcc"/><path id="shape4" transform="translate(87.6490459154217, 156.149448939851)" fill="#9e7562" fill-rule="evenodd" stroke="#000000" stroke-width="1.2" stroke-linecap="square" stroke-linejoin="bevel" d="M0.190954 2.49055C-0.000899774 6.22521 -0.339692 8.99939 0.910954 15.3306C12.791 19.4506 19.571 20.8506 21.251 19.5306C22.931 18.2106 22.291 16.3106 19.331 13.8306L21.671 12.5706C21.9325 5.99007 20.8403 5.72679 20.231 3.21055C18.1511 -0.814968 11.4711 -1.05497 0.190954 2.49055Z" sodipodi:nodetypes="cczcccc"/><path id="shape5" transform="translate(69.051696979689, 61.5320948820669)" fill="#3a3535" fill-rule="evenodd" stroke="#000000" stroke-width="1.2" stroke-linecap="square" stroke-linejoin="bevel" d="M20.6783 12.6579C6.10047 34.3959 -0.769526 48.5559 0.068303 55.1379C0.906132 61.7199 0.936132 64.2999 0.158303 62.8779C4.0583 64.1979 6.6083 65.1579 7.8083 65.7579C9.0083 66.3579 6.9383 65.8479 1.5983 64.2279C0.980429 67.5279 0.500438 71.5479 1.0583 74.8479C7.1183 77.1279 10.8683 78.2679 12.3083 78.2679C13.7483 78.2679 13.8383 75.3579 12.5783 69.5379C13.5274 50.1231 14.7874 38.7231 16.3583 35.3379C17.9292 31.9527 17.8092 33.2127 15.9983 39.1179C12.7397 46.8195 14.1823 54.1292 13.4783 61.6179C13.1183 78.2979 13.0583 88.4379 13.2983 92.0379C13.5383 95.6379 12.6383 99.3279 10.5983 103.108C12.8644 101.835 16.9444 100.815 22.8383 100.048C31.6791 98.8972 31.6583 101.938 36.8783 101.218C42.0983 100.498 45.3383 97.0779 51.9983 99.4179C58.6583 101.758 59.9183 102.298 67.2983 101.758C74.6783 101.218 71.7983 100.678 78.9983 102.838C83.7983 104.278 85.7183 103.138 84.7583 99.4179L73.4183 67.9179C68.7383 49.4379 67.3583 39.1779 69.2783 37.1379C71.1983 35.0979 70.8983 36.1179 68.3783 40.1979L69.9983 50.9979C71.5583 52.7979 75.2183 51.7179 80.9783 47.7579C89.6183 41.8179 91.2383 46.3179 91.4183 42.7179C91.5983 39.1179 87.8183 39.6579 91.5983 37.1379C95.3783 34.6179 101.318 33.1779 100.058 29.9379C98.7983 26.6979 93.3983 25.6179 91.0583 25.6179C89.4983 25.6179 87.9983 25.7379 86.5583 25.9779L96.4583 25.8879C97.3529 26.8514 98.7329 24.3614 100.598 18.4179C102.464 12.4744 96.8436 6.4744 83.7383 0.417903C70.7441 -0.240809 62.2041 -0.120809 58.1183 0.777903C54.0325 1.67662 50.7125 2.17662 48.1583 2.2779C44.5058 1.557 35.3458 5.01701 20.6783 12.6579Z" sodipodi:nodetypes="czczcczczcczczzzzzcczcczzzzzcczczcc"/><path id="shape6" transform="translate(126.539999904508, 128.699999902878)" fill="#fdfdfd" fill-rule="evenodd" stroke="#000000" stroke-width="2.4" stroke-linecap="square" stroke-linejoin="bevel" d="M4.95 0L0 7.56L1.53 12.15L4.86 11.07L7.74 0.99C8.04 1.65 7.11 1.32 4.95 0Z" sodipodi:nodetypes="cccccc"/><path id="shape7" transform="translate(92.1599944372626, 65.4012272033814)" fill="#000000" fill-rule="evenodd" stroke="#000000" stroke-width="2.4" stroke-linecap="square" stroke-linejoin="bevel" d="M0 9.35877C2.08 11.2788 3.2 13.3988 3.36 15.7188C3.52 18.0388 3.4 20.5588 3 23.2788C3.24 24.9588 5 24.4388 8.28 21.7188C13.2 17.6388 33.72 9.11877 36.96 5.15877C40.2 1.19877 43.8 -2.04123 50.28 1.55877C56.76 5.15877 63.6 10.3188 65.88 9.47877C68.16 8.63877 60.6 3.13177 54.72 2.27877C48.84 1.42577 47.64 0.625861 43.2 1.19877C38.76 1.77168 25.9391 2.88406 23.04 2.87877C20.1409 2.87347 11.9706 5.81535 5.4 7.31877C-0.96 7.55877 1.32 9.47877 0 9.35877Z" sodipodi:nodetypes="czczzzzzzzcc"/><path id="shape8" transform="translate(60.3908229892549, 10.2257142779942)" fill="#ffffff" fill-rule="evenodd" stroke="#000000" stroke-width="2.4" stroke-linecap="square" stroke-linejoin="bevel" d="M2.96918 11.7343C13.2892 2.85429 26.2492 -0.985714 41.8492 0.214286C65.2492 2.01429 78.9292 7.41429 79.6492 21.0943C80.3692 34.7743 76.0492 44.8543 71.0092 46.6543C65.9692 48.4543 48.563 51.9524 44.3692 50.9743C41.5733 50.3222 39.4533 50.9422 38.0092 52.8343C37.6124 58.7751 37.0724 62.0351 36.3892 62.6143C35.3643 63.483 21.5692 63.9943 18.1492 60.3943C15.8692 57.9943 15.7292 53.5943 17.7292 47.1943C6.80917 38.3143 1.10918 32.2543 0.629175 29.0143C-0.0908248 24.1543 -0.990821 16.5943 2.96918 11.7343Z" sodipodi:nodetypes="czzzzczzccc"/><path id="shape9" transform="translate(99.3580298595981, 60.9599068218383)" fill="#ffffff" fill-rule="evenodd" stroke="#000000" stroke-width="2.4" stroke-linecap="square" stroke-linejoin="bevel" d="M12.842 0.600091L15.002 13.8001L3.60197 16.3201L0.0019671 1.80009C-0.105303 -0.0928602 4.1747 -0.49286 12.842 0.600091Z" sodipodi:nodetypes="ccccc"/><path id="shape10" transform="translate(80.8199951217412, 94.6799942851586)" fill="#442a1e" fill-rule="evenodd" stroke="#000000" stroke-width="2.4" stroke-linecap="square" stroke-linejoin="bevel" d="M5.4 6.84L103.14 87.48C108.78 88.68 112.08 88.38 113.04 86.58C114 84.78 108.12 79.98 95.4 72.18L3.42 0L0 3.78C0 3.78 1.8 4.8 5.4 6.84Z" sodipodi:nodetypes="cczcccc"/><path id="shape11" transform="matrix(-0.830284532141697 -0.557339748884151 -0.557339748884151 0.830284532141697 158.08334487308 136.929224830061)" fill="#ffffff" fill-rule="evenodd" stroke="#000000" stroke-width="2.4" stroke-linecap="square" stroke-linejoin="bevel" d="M3.55483 3.68691L0 7.75196L0.455747 12.4788L4.28402 13.8023L3.55483 10.588L7.47425 4.7268L3.82827 10.3044L4.92207 14.1804L8.2946 16.2602L8.56804 8.50825L12.3963 5.38856L9.20609 9.64268L8.84149 15.8821L11.8494 18.9072L14.3105 19.2854L13.2167 12.9514L17.0449 7.46835L18.6846 6.50178L16.3477 9.174L14.5535 11.8405C13.8955 13.1574 14.7901 14.3144 13.5416 16.511C19.7534 24.3185 16.8865 12.506 19.0751 12.82L21.8192 9.39921C28.0763 6.27869 25.9321 6.48055 23.1519 3.49784L15.4954 0C15.3739 0.0630241 11.3937 1.29199 3.55483 3.68691Z" sodipodi:nodetypes="cccccccccccccccccccccccccc"/><path id="shape12" transform="translate(128.403884423663, 122.639992597519)" fill="#33302f" fill-rule="evenodd" stroke="#000000" stroke-width="2.4" stroke-linecap="square" stroke-linejoin="bevel" d="M0.236108 9.54C2.79969 9.80671 5.51969 9.50671 8.39611 8.64C12.7107 7.33994 20.0361 8.04 22.5561 9.36C24.2361 10.24 25.2361 9.32 25.5561 6.6L23.0361 0L1.34611 1.98C0.0728618 1.06426 -0.297138 3.58426 0.236108 9.54Z" sodipodi:nodetypes="czzcccc"/><path id="shape13" transform="translate(74.298161727998, 98.81999403527)" fill="#8f8f8f" fill-rule="evenodd" stroke="#000000" stroke-width="2.4" stroke-linecap="square" stroke-linejoin="bevel" d="M7.06183 0C3.90607 4.8698 1.86607 9.6698 0.941834 14.4C-0.444522 21.4953 -0.377957 28.6098 1.66183 33.66C3.02169 37.0268 6.08169 42.2468 10.8418 49.32L12.8218 51.12C10.3018 32.52 10.0618 21.24 12.1018 17.28C14.1418 13.32 16.7218 10.92 19.8418 10.08C19.8418 9.96 15.5818 6.6 7.06183 0Z" sodipodi:nodetypes="czzcczcc"/><path id="shape14" transform="translate(85.9799946815453, 169.768729320755)" fill="#47281c" fill-rule="evenodd" stroke="#000000" stroke-width="1.2" stroke-linecap="square" stroke-linejoin="bevel" d="M6.6 1.29126C15.7817 1.15366 21.2167 0.763657 22.905 0.12126C24.5933 -0.521136 25.5783 1.38886 25.86 5.85126C27.14 7.73126 27.28 8.61126 26.28 8.49126C24.78 8.31126 16.59 9.96126 14.01 10.5613C11.43 11.1613 2.24048 10.3549 0.66 9.30126C-0.920478 8.24761 2.96194 5.61223 0 3.63126C0.3 0.326713 4.62 2.14127 6.6 1.29126Z" sodipodi:nodetypes="czczzzcc"/><path id="shape01" transform="translate(102.701616434658, 175.869791552931)" fill="#44281e" fill-rule="evenodd" stroke="#000000" stroke-width="1.2" stroke-linecap="square" stroke-linejoin="bevel" d="M14.4518 0.36L15.0818 15.57C7.58184 15.99 2.45184 18.33 1.13184 20.25C-0.188155 22.17 -0.248155 25.89 0.411845 28.17L3.35184 30.42C24.758 33.2165 35.7437 29.7003 36.6818 26.73C37.6199 23.7597 35.7818 14.49 35.7818 11.79C35.7818 9.99 36.1718 6.39 36.9518 0.99L13.5518 0C13.5518 0 13.8518 0.12 14.4518 0.36Z" sodipodi:nodetypes="cczcczzccc"/><path id="shape15" transform="translate(114.453460252295, 167.881200361192)" fill="#47281c" fill-rule="evenodd" stroke="#000000" stroke-width="1.2" stroke-linecap="square" stroke-linejoin="bevel" d="M6.78 0.998591C15.9617 0.860991 21.2167 0.740988 22.905 0.0985912C24.5933 -0.543805 25.4883 1.99619 25.77 6.45859C27.05 8.33859 27.19 9.21859 26.19 9.09859C24.69 8.91859 16.5 10.5686 13.92 11.1686C11.34 11.7686 2.15048 10.9622 0.57 9.90859C-1.01048 8.85494 2.96194 5.58956 0 3.60859C0.3 0.304044 4.8 1.8486 6.78 0.998591Z" sodipodi:nodetypes="czczzzcc"/><path id="shape16" transform="translate(122.64661372571, 78.6539251065912)" fill="#353130" fill-rule="evenodd" stroke="#000000" stroke-width="1.2" stroke-linecap="square" stroke-linejoin="bevel" d="M1.73338 11.5861C1.25338 5.22607 2.81338 1.50607 6.41338 0.42607C11.8134 -1.19393 14.1534 2.22607 17.3934 3.66607C20.6334 5.10607 24.9534 6.90607 26.5734 16.6261C28.1934 26.3461 33.3234 47.9461 30.8034 49.2061C28.2834 50.4661 25.0434 45.5161 15.8634 46.9561C6.68338 48.3961 1.73338 54.5161 1.73338 46.9561C1.73338 39.3961 1.55338 32.5561 0.833379 29.6761C0.113379 26.7961 -0.966621 26.7061 1.73338 11.5861Z" sodipodi:nodetypes="czzzzzzcc"/><path id="shape17" transform="translate(81.3599999385954, 58.3199999559843)" fill="none" stroke="#000000" stroke-width="2.4" stroke-linecap="square" stroke-linejoin="bevel" d="M0 12.72C0.8 4.96 1.72 0.72 2.76 0" sodipodi:nodetypes="cc"/><path id="shape18" transform="translate(89.0399999327991, 59.0399999554409)" fill="none" stroke="#000000" stroke-width="2.4" stroke-linecap="square" stroke-linejoin="bevel" d="M0 12.96C0.24 4.72 0.92 0.4 2.04 0" sodipodi:nodetypes="cc"/><path id="shape19" transform="translate(101.60999386689, 69.2999958170996)" fill="none" stroke="#000000" stroke-width="2.4" stroke-linecap="square" stroke-linejoin="bevel" d="M0 0.54C4.32 3.15 10.89 1.26 11.16 0" sodipodi:nodetypes="cc"/><path id="shape20" transform="translate(84.2399949153317, 41.0399975228539)" fill="#0f0703" fill-rule="evenodd" stroke="#000000" stroke-width="2.4" stroke-linecap="square" stroke-linejoin="bevel" d="M5.52 0C3.28 3.52 1.44 5.84 0 6.96L5.76 9.12C5.76 9.12 5.68 6.08 5.52 0Z" sodipodi:nodetypes="cccc"/><path id="shape21" transform="matrix(0.999428786882738 -0.0337949693016512 0.0337949693016512 0.999428786882738 97.0483978938176 29.3082276972486)" fill="#110602" fill-rule="evenodd" stroke="#000000" stroke-width="2.4" stroke-linecap="square" stroke-linejoin="bevel" d="M2.20689 1.18418C0.521171 3.33846 -0.198829 5.37846 0.0468914 7.30418C0.415473 10.1928 4.73859 15.9559 7.78689 16.6642C10.8352 17.3725 15.7069 17.3842 19.3069 16.1242C21.7069 15.2842 23.8669 14.2042 25.7869 12.8842C29.6118 6.34049 29.8518 2.50049 26.5069 1.36418C21.4895 -0.340293 16.9669 1.54418 13.1869 1.72418C9.5225 1.63334 7.59067 -1.72657 2.20689 1.18418Z" sodipodi:nodetypes="czzzczcc"/><path id="shape02" transform="matrix(-0.961187356623262 -0.275896475997046 -0.275896475997046 0.961187356623262 91.9712113266304 27.7673736053288)" fill="#110602" fill-rule="evenodd" stroke="#000000" stroke-width="2.4" stroke-linecap="square" stroke-linejoin="bevel" d="M1.99345 0.837751C0.470766 3.01529 -0.179599 5.07732 0.0423562 7.02384C0.375291 9.94356 5.66548 15.2927 8.41896 16.0086C11.1725 16.7246 14.1878 17.2127 17.4396 15.9391C19.6075 15.09 20.9488 13.9482 22.6831 12.6139C26.1381 5.99954 25.0017 3.35267 21.9803 2.20409C17.4482 0.481217 15.5556 2.14147 12.1411 2.32341C8.83139 2.23163 9.54926 -1.66608 1.99345 0.837751Z" sodipodi:nodetypes="czzzczcc"/>
</svg>
