<?xml version="1.0" standalone="no"?>
<!DOCTYPE svg PUBLIC "-//W3C//DTD SVG 20010904//EN" "http://www.w3.org/TR/2001/REC-SVG-20010904/DTD/svg10.dtd">
<!-- Created using Krita: https://krita.org -->
<svg xmlns="http://www.w3.org/2000/svg" 
    xmlns:xlink="http://www.w3.org/1999/xlink"
    xmlns:krita="http://krita.org/namespaces/svg/krita"
    xmlns:sodipodi="http://sodipodi.sourceforge.net/DTD/sodipodi-0.dtd"
    width="240pt"
    height="240pt"
    viewBox="0 0 240 240">
<defs/>
<path id="shape0" transform="translate(8.72236300461091, 9.56015743410276)" fill="#8d8d8d" fill-rule="evenodd" stroke="#8f8f8f" stroke-width="2.4" stroke-linecap="square" stroke-linejoin="bevel" d="M13.0276 125.65C14.4676 117.65 16.1476 111.57 18.0676 107.41C20.9476 101.17 20.7076 88.4498 26.9476 80.7698C33.1876 73.0898 40.3876 64.6898 47.3476 63.9698C54.3076 63.2498 67.2676 65.1698 68.2276 60.1298C68.8676 56.7698 71.6676 54.0498 76.6276 51.9698L86.7076 62.7698L92.3476 41.4698L105.128 26.7098L107.288 26.8898C114.848 16.2498 121.668 9.72984 127.748 7.32984C136.868 3.72984 143.348 -0.830158 152.948 0.129842C159.348 0.769842 170.868 5.16984 187.508 13.3298L219.668 30.8498C221.221 34.4304 222.821 36.7504 224.468 37.8098C226.114 38.8693 227.634 40.8693 229.028 43.8098C225.188 55.6498 223.988 62.6898 225.428 64.9298C227.588 68.2898 229.748 109.57 229.268 116.05C228.788 122.53 228.428 158.29 225.188 161.89C221.948 165.49 212.948 180.07 212.228 187.63C211.748 192.67 212.768 197.23 215.288 201.31C216.788 202.81 216.968 204.55 215.828 206.53C214.688 208.51 210.458 209.89 203.138 210.67L193.148 212.29C181.568 209.53 175.178 208.39 173.978 208.87C172.778 209.35 167.528 209.83 158.228 210.31C151.028 210.43 146.868 210.53 145.748 210.61C144.628 210.69 140.948 210.29 134.708 209.41C135.028 213.89 134.468 216.57 133.028 217.45C130.868 218.77 120.788 225.43 117.548 224.89C114.308 224.35 115.928 227.77 106.208 228.31C96.4876 228.85 60.1276 230.65 56.8876 228.49C54.7276 227.05 51.9676 226.69 48.6076 227.41C45.3676 229.57 42.8476 229.75 41.0476 227.95C39.2476 226.15 37.9276 222.79 37.0876 217.87C31.1276 215.43 25.0676 214.25 18.9076 214.33C9.66764 214.45 2.10764 212.41 0.427636 203.29C-0.692364 197.21 0.387636 191.53 3.66764 186.25C2.86764 185.21 2.98764 183.41 4.02764 180.85C5.58764 177.01 9.90764 170.53 10.7476 167.29C11.5876 164.05 13.4476 138.91 12.7876 138.73C12.3476 138.61 11.8876 137.45 11.4076 135.25L13.2676 127.99C13.2676 127.99 13.1876 127.21 13.0276 125.65Z" sodipodi:nodetypes="czzzzccccczzcczczzzzczcczczczzzzczczzczzzccc"/><path id="shape1" transform="translate(146.789998162659, 7.66057817208591)" fill="#5b5b5b" fill-rule="evenodd" d="M0 3.31942C7.92 8.41942 12.24 11.6294 12.96 12.9494C14.04 14.9294 15.66 19.0694 17.91 20.4194C20.16 21.7694 31.77 27.9794 37.44 28.9694C41.22 29.6294 44.04 30.1094 45.9 30.4094C50.16 33.8294 53.25 35.9294 55.17 36.7094C58.05 37.8794 89.55 49.3994 90.81 48.4094C92.07 47.4194 92.61 46.5194 92.43 45.3494C92.25 44.1794 91.44 41.2094 89.82 40.0394C88.2 38.8694 86.67 39.6794 85.68 38.4194C84.69 37.1594 82.35 33.1994 82.62 31.8494C82.8 30.9494 70.17 24.1394 44.73 11.4194C29.73 4.33942 20.37 0.619422 16.65 0.259422C11.07 -0.280578 11.07 -0.280578 0 3.31942Z" sodipodi:nodetypes="czzzczzzzzzccc"/><path id="shape2" transform="translate(121.124994874283, 174.464992617064)" fill="#383838" fill-rule="evenodd" stroke="none" stroke-width="9.6" stroke-linecap="square" stroke-linejoin="bevel" d="M0 14.82L3.93 10.98L3.66 5.67L3.3 0C5.25952 5.33452 7.43073 10.6407 9 15.585L9.9 17.925L7.05 15.765L5.91 15.72C6.04471 15.9308 4.07471 15.6308 0 14.82Z" sodipodi:nodetypes="ccccccccc"/><path id="shape3" transform="translate(202.274991438619, 44.0399981362787)" fill="#484848" fill-rule="evenodd" d="M0 0C23.1626 7.55177 34.7126 11.5118 34.65 11.88C34.5874 12.2482 35.1574 11.8882 36.36 10.8C35.22 13.56 34.62 15.63 34.56 17.01C34.5 18.39 33.81 21.87 32.49 27.45C33.7949 30.4688 34.4849 32.6288 34.56 33.93C34.6727 35.8818 38.1019 77.932 36.99 79.83C36.2487 81.0953 35.9787 85.1153 36.18 91.89C36.84 93.19 36.91 93.72 36.39 93.48C35.61 93.12 31.9029 93.1413 29.13 91.68C27.2814 90.7058 24.0814 89.0958 19.53 86.85C14.7753 85.8593 9.93001 84.375 5.31001 83.115C3.95649 81.5462 3.25649 80.3012 3.21001 79.38C3.14029 77.9983 6.21001 68.34 6.57001 65.76C6.93001 63.18 8.16 52.035 8.025 50.775C7.89 49.515 6.735 45.51 7.32 44.52C7.905 43.53 7.442 42.6292 9.51 40.8975C11.578 39.1658 12.842 37.0234 13.23 36.8175C13.618 36.6116 15.7125 33.2775 15.4725 32.5575C15.2325 31.8375 14.43 31.92 13.59 31.2C12.75 30.48 10.35 30 10.53 25.26C10.71 20.52 10.92 20.76 9.11999 17.76C7.91999 15.76 5.47 10.92 1.77 3.24C1.40664 3.12192 0.816637 2.04192 0 0Z" sodipodi:nodetypes="czczczzczzcczzzzzzzzzzcc"/><path id="shape4" transform="translate(10.7364701338789, 173.639992651733)" fill="#5b5b5b" fill-rule="evenodd" d="M7.02353 3.6C13.5035 5.12 17.7835 5.68 19.8635 5.28C21.9435 4.88 26.5435 4.28 33.6635 3.48L39.9035 1.56L44.7035 3L58.1435 0C64.1435 3.2 67.9035 4.48 69.4235 3.84C70.9435 3.2 77.5435 2.72 89.2235 2.4C93.6235 4.96 96.5035 7.44 97.8635 9.84C99.2235 12.24 100.224 13.88 100.864 14.76C94.3235 15.22 88.8135 16.57 84.3335 18.81C79.8535 21.05 74.2435 24.38 67.5035 28.8L53.8235 37.56L32.8235 24.48C26.5035 17.28 21.8635 14.32 18.9035 15.6C14.4635 17.52 1.74353 24 1.38353 22.08C1.14353 20.8 0.703529 20.64 0.0635294 21.6C-0.176471 18.88 0.263529 16.64 1.38353 14.88C2.50353 13.12 4.22353 9.96 6.54353 5.4C6.70353 4.6 6.86353 4 7.02353 3.6Z" sodipodi:nodetypes="czcccczczczccczzczcc"/><path id="shape5" transform="translate(82.6649965017083, 175.589992569225)" fill="#424242" fill-rule="evenodd" d="M0 1.305C3.75 4.785 5.925 6.54 6.525 6.57C7.425 6.615 6.975 7.425 8.1 7.38C8.85 7.35 9.2775 7.44 9.3825 7.65C9.9975 8.04 10.17 8.58 9.9 9.27C9.63 9.96 9.24 10.62 8.73 11.25L9.9 13.77L11.475 17.0775C14.7525 15.795 15.1686 14.9213 21.3075 13.23L28.6425 12.9375C28.9875 13.1656 29.3325 13.0944 29.6775 13.1625C26.8725 9.2175 25.455 7.08 25.425 6.75C25.38 6.255 21.735 2.565 21.06 2.52C20.61 2.49 19.32 1.65 17.19 0C12.96 0.48 10.11 0.705 8.64 0.675C6.435 0.63 6.435 0.63 0 1.305Z" sodipodi:nodetypes="czzczcccccczzccc"/><path id="shape6" transform="translate(161.099997983794, 26.699998870121)" fill="#303030" fill-rule="evenodd" stroke="none" stroke-width="9.6" stroke-linecap="square" stroke-linejoin="bevel" d="M0 11.37L0.562934 3.69756L2.43938 0L8.09999 0.338943L4.65984 4.52951C4.4305 4.46789 2.87722 6.74805 0 11.37Z" sodipodi:nodetypes="cccccc"/><path id="shape7" transform="translate(34.6799974988271, 60.1372702057061)" fill="#7a7a7a" fill-rule="evenodd" d="M2.52 26.2027C9.65406 18.2528 14.8541 13.7328 18.12 12.6427C23.0189 11.0076 28.0719 12.1204 29.4 11.9827C30.7281 11.8451 40.92 11.7427 41.16 9.46272C41.4 7.18272 42.72 3.82273 46.32 2.14273C49.92 0.462725 50.52 -1.57727 53.76 1.90273C57 5.38273 58.32 7.78272 59.64 8.86272C60.96 9.94272 70.44 14.2627 69.6 17.8627C69.04 20.2627 70.08 23.8627 72.72 28.6627C81.44 35.4627 85.92 39.5827 86.16 41.0227C86.52 43.1827 91.68 47.0227 87 47.3827C82.32 47.7427 76.32 45.4627 70.68 47.8627C65.04 50.2627 60.6 55.0627 58.2 55.4227C55.8 55.7827 51.6 55.6627 49.92 57.3427C48.24 59.0227 37.2 62.6227 31.8 61.1827C28.2 60.2227 26.08 58.7827 25.44 56.8627C17.92 51.7427 13.4 47.7427 11.88 44.8627C10.36 41.9827 8.12 37.5427 5.16 31.5427C4.04 31.6227 3 31.5027 2.04 31.1827C1.08 30.8627 0.4 30.3427 0 29.6227C0.16 29.2627 1 28.1227 2.52 26.2027Z" sodipodi:nodetypes="czzzzzzzczzzzzzczczcc"/><path id="shape8" transform="translate(94.7099959919572, 47.9699979699524)" fill="#676767" fill-rule="evenodd" d="M0 21.69L5.19 2.79L7.17 0C8.31 3.36 8.76 5.55 8.52 6.57C8.16 8.1 8.34 6.12 9.87 8.46C11.4 10.8 19.32 13.14 20.31 18.99C21.3 24.84 24.27 50.49 27.87 50.13C31.47 49.77 37.59 55.62 36.51 55.44C35.43 55.26 39.33 59.91 47.61 62.31C53.13 63.91 79.76 70.68 127.5 82.62C134.52 86.76 138.96 88.95 140.82 89.19C142.68 89.43 143.73 89.58 143.97 89.64C144.33 90.36 144.15 90.81 143.43 90.99C142.35 91.26 134.25 87.57 129.03 85.77C123.81 83.97 112.56 79.47 106.26 77.85C99.96 76.23 76.89 72.27 71.13 71.43C65.37 70.59 27.09 61.71 28.17 59.31C29.25 56.91 28.23 59.07 27.105 55.74C25.98 52.41 25.845 55.755 24.855 53.145C23.865 50.535 13.32 42.81 12.825 41.325C12.33 39.84 8.73 34.11 9.36 30.375C9.98918 26.6406 7.37859 28.5985 0 21.69Z" sodipodi:nodetypes="ccczzzzzzczczzzzzzzzcc"/><path id="shape9" transform="translate(45.1199994352454, 189.216497754881)" fill="#606060" fill-rule="evenodd" d="M0 40.8235C2.76 35.1835 2.04 37.4635 5.28 33.0235C8.52 28.5835 8.4 25.9435 12.12 25.4635C14.6 25.1435 18.88 22.7435 24.96 18.2635L44.79 5.6935C50.61 2.3935 55.6 0.5435 59.76 0.1435C66 -0.4565 83.88 0.8635 85.92 3.3835C87.96 5.9035 89.04 9.6235 90.84 10.3435C92.04 10.8235 94.36 14.7435 97.8 22.1035C100.36 26.9835 99.92 27.9035 96.48 24.8635C91.32 20.3035 90.96 19.4635 86.28 17.7835C81.6 16.1035 77.52 14.0635 73.44 14.1835C70.72 14.2635 68.56 14.7035 66.96 15.5035C67.04 15.0235 65.28 15.1435 61.68 15.8635C56.28 16.9435 44.76 19.9435 42.12 22.5835C40.36 24.3435 37.76 25.7835 34.32 26.9035C24.32 29.5435 18.32 31.0235 16.32 31.3435C14.32 31.6635 12.8 31.5835 11.76 31.1035L14.16 28.4635C14.48 27.3435 13.28 27.5435 10.56 29.0635C6.48 31.3435 6.48 31.3435 0 40.8235Z" sodipodi:nodetypes="czzcczzzczzzczzczcccc"/><path id="shape10" transform="translate(102.059992639294, 188.63607335183)" fill="#505050" fill-rule="evenodd" d="M1.35 0.813913C0.57 4.05391 0.21 6.27391 0.27 7.47391C0.33 8.67391 0.24 9.90391 0 11.1639C0.567644 11.7316 1.00764 12.1716 1.32 12.4839C1.63236 12.7963 2.27236 12.9263 3.24 12.8739L9.63 14.4039C10.8482 14.3648 11.3716 14.6731 11.31 15.2739C14.69 15.7139 17.25 15.9039 18.99 15.8439C21.6 15.7539 26.73 16.2939 28.8 17.7339C30.87 19.1739 29.82 17.7639 33.06 20.8239C36.3 23.8839 38.7 25.0239 40.23 25.7439C41.76 26.4639 42.72 28.7739 42.18 25.9839C41.64 23.1939 39.42 21.2439 39.06 19.7139C38.82 18.6939 37.71 16.1439 35.73 12.0639L33.21 10.1739C31.47 8.13391 30.36 6.60391 29.88 5.58391C29.4 4.56391 28.26 3.33391 26.46 1.89391C17.22 0.573913 11.28 -0.056087 8.64 0.00391304C4.68 0.093913 4.68 0.093913 1.35 0.813913Z" sodipodi:nodetypes="czczccczzzzzzcczccc"/><path id="shape11" transform="translate(45.4199994314911, 188.72275064782)" fill="none" stroke="#333333" stroke-width="0.48" stroke-linecap="square" stroke-linejoin="bevel" d="M0 40.7172L4.8 33.2772C7.07395 29.698 8.43395 27.618 8.88 27.0372C9.54907 26.1661 11.7 25.9572 12.72 25.5972C13.74 25.2372 17.04 24.6972 18.66 23.0172C19.74 21.8972 26.46 17.4772 38.82 9.75725L50.25 3.15724C55.59 1.19724 59.22 0.157241 61.14 0.0372414C63.06 -0.0827586 67.41 0.0872414 74.19 0.547241L82.56 1.53724L85.35 3.42724C86.9021 5.94682 87.8921 7.52682 88.32 8.16724C88.7479 8.80767 89.9179 10.0377 91.83 11.8572L99.12 25.9272C99.42 27.6672 99.18 28.1472 98.4 27.3672C97.62 26.5872 96.25 25.5272 94.29 24.1872C91.9717 22.6874 90.2617 21.3974 89.16 20.3172C87.5075 18.697 83.2826 16.7456 81.03 16.3872C78.7774 16.0289 73.29 15.8472 71.76 15.9372C70.23 16.0272 68.76 14.3183 67.23 15.0372C65.7 15.7562 60.3797 16.2748 57.99 17.1672C55.6003 18.0596 49.5035 19.5633 45.84 20.8872C42.1765 22.2112 35.04 27.5472 33.69 27.3672C32.34 27.1872 24.15 30.3874 22.62 30.5172C21.09 30.647 12.63 31.971 12.18 32.8572C11.73 33.7435 12.27 30.6072 13.08 29.5272C13.89 28.4472 14.88 27.7272 13.35 28.3572C11.82 28.9872 9.48 29.8872 7.41 31.4172C6.03 32.4372 5.04 33.3672 4.44 34.2072" sodipodi:nodetypes="cczzzcczccczcczczzzzzzzzzzzzc"/><path id="shape12" transform="translate(59.8878922024473, 120.689994892522)" fill="#3b3b3b" fill-rule="evenodd" d="M5.54211 0.63C7.8821 4.23 8.8121 6.78 8.3321 8.28C7.8521 9.78 7.7321 11.01 7.9721 11.97C9.7121 12.87 10.4021 14.19 10.0421 15.93C9.5021 18.54 8.8721 25.38 7.1621 26.37C6.02211 27.03 4.94211 28.02 3.92211 29.34L1.94211 39.06C1.82211 43.8 1.40211 46.53 0.682105 47.25C-0.0378947 47.97 -0.187895 48.84 0.232105 49.86L0.862105 52.29L2.30211 48.69L7.5221 31.59C11.4821 26.49 13.1621 23.22 12.5621 21.78C11.9621 20.34 11.3621 18.33 10.7621 15.75C11.7821 11.07 12.6221 8.58 13.2821 8.28C13.9421 7.98 14.6621 7.68 15.4421 7.38C14.9021 6.72 14.7521 5.82 14.9921 4.68C15.2321 3.54 15.5621 1.98 15.9821 0C11.2421 0.24 8.3921 0.36 7.4321 0.36C5.99211 0.36 5.99211 0.36 5.54211 0.63Z" sodipodi:nodetypes="czczzcczcccczczczccc"/><path id="shape13" transform="translate(18.8399992027104, 135.719994256468)" fill="#727272" fill-rule="evenodd" d="M2.16 0L7.2 6.48C9.44 8.48 9.88 10.36 8.52 12.12C7.16 13.88 5.6 16.92 3.84 21.24L4.44 27.72C3.08 23.8 2.28 21.12 2.04 19.68C1.8 18.24 1.72 16.56 1.8 14.64L1.44 12.48L0 8.52C0.72 6.12 1.2 4.36 1.44 3.24C1.8 1.56 1.8 1.56 2.16 0Z" sodipodi:nodetypes="cczcczccccc"/><path id="shape14" transform="translate(119.759994931881, 107.279995460022)" fill="none" stroke="#333333" stroke-width="0.48" stroke-linecap="square" stroke-linejoin="bevel" d="M0 0C2.4 11.68 3.4 18.24 3 19.68C2.4 21.84 3.86699 47.7221 2.52 48.48C1.622 48.9853 1.862 50.9053 3.24 54.24L4.8 66.84L10.98 84.51" sodipodi:nodetypes="czzccc"/><path id="shape15" transform="translate(192.419997591558, 37.8899995257464)" fill="none" d="M9.17999 6.03C6.42 5.67 4.44 4.77 3.24 3.33C2.04 1.89 0.96 0.78 0 0L6.93 2.52C6.93 2.52 7.68 3.69 9.17999 6.03Z" sodipodi:nodetypes="czccc"/><path id="shape16" transform="translate(199.259997503262, 42.8849994323806)" fill="none" stroke="#333333" stroke-width="0.48" stroke-linecap="square" stroke-linejoin="bevel" d="M0 0L2.33999 1.035C10.18 13.995 13.94 21.675 13.62 24.075C13.14 27.675 13.14 30.555 16.02 32.475C18.9 34.395 19.38 32.475 16.74 37.275C14.1 42.075 9.05999 43.035 10.26 48.555C11.46 54.075 10.26 61.755 9.53999 66.075C9.05999 68.955 7.93999 73.915 6.17999 80.955L7.85999 84.315" sodipodi:nodetypes="cczzzzzcc"/><path id="shape17" transform="translate(192.959997584799, 37.7999995268729)" fill="none" d="M6.21 4.05L5.04 1.17L0 0L3.24 3.42C3.3 3.42 4.29 3.63 6.21 4.05Z" sodipodi:nodetypes="ccccc"/><path id="shape18" transform="translate(191.96999759719, 37.4399995313789)" fill="#353535" fill-rule="evenodd" stroke="#333333" stroke-width="0.48" stroke-linecap="square" stroke-linejoin="bevel" d="M7.65 5.76L2.25 2.16L0 0L7.2 1.8C7.56 2.04 7.71 3.36 7.65 5.76Z" sodipodi:nodetypes="ccccc"/><path id="shape19" transform="translate(55.709997642414, 173.699992649207)" fill="#4d4d4d" fill-rule="evenodd" d="M0 3.06C7.8 3.54 11.94 4.32 12.42 5.4C12.9 6.48 15.99 8.4 21.69 11.16C29.61 13.2 33.57 14.91 33.57 16.29C33.57 17.67 34.65 18.75 36.81 19.53L38.52 18.54L35.91 13.68C37.23 10.92 37.2 9.51 35.82 9.45C34.44 9.39 31.44 7.41 26.82 3.51C24.84 4.23 23.34 4.44 22.32 4.14C21.3 3.84 18.3 2.46 13.32 0C13.32 0 8.88 1.02 0 3.06Z" sodipodi:nodetypes="czczccczczcc"/><path id="shape20" transform="translate(164.802855080094, 124.319991033893)" fill="#454545" fill-rule="evenodd" d="M12.5571 40.32C14.6371 27.36 17.2771 20.16 20.4771 18.72C23.6771 17.28 27.2771 14.24 31.2771 9.6L29.5971 0C38.1104 2.34321 43.3404 3.74321 45.2871 4.20001C47.2339 4.6568 50.5139 5.7768 55.1271 7.56001L63.6771 10.92L70.7571 14.16L73.6371 14.64C73.4771 35.04 72.5571 46 70.8771 47.52C68.3571 49.8 41.8371 54.96 39.9171 59.04C37.9971 63.12 31.2771 77.04 31.2771 80.4C31.2771 82.64 35.0771 88.04 42.6771 96.6C44.0371 96.92 44.2371 97.2 43.2771 97.44C41.8371 97.8 38.3571 99.72 36.9171 99.12C35.4771 98.52 22.5171 95.04 20.7171 95.04C19.5171 95.04 16.9571 95.4 13.0371 96.12C3.67714 74.6 -0.642857 62.28 0.0771429 59.16C1.15714 54.48 9.79714 46.32 10.5171 44.88C11.2371 43.44 11.2371 43.44 12.5571 40.32Z" sodipodi:nodetypes="czcczcccczzzczzzczcc"/><path id="shape21" transform="translate(195.79875832887, 172.259997843901)" fill="#2d2d2d" fill-rule="evenodd" d="M12.1912 49.23C5.29124 42.21 1.36124 37.35 0.401239 34.65C-1.03876 30.6 1.75124 27.27 3.19124 23.94C4.15124 21.72 6.07124 17.07 8.95124 9.99C19.6142 5.53144 26.1542 3.16144 28.5712 2.88C30.9883 2.59856 34.4083 1.63856 38.8312 0C32.4712 10.62 29.6512 15.51 30.3712 14.67C31.4512 13.41 24.4912 23.85 26.2012 26.55C27.9112 29.25 32.0812 38.88 31.7212 40.05C31.3612 41.22 29.8312 48.33 27.8512 47.7C25.8712 47.07 17.1412 49.59 15.4312 49.59C13.7212 49.59 13.0012 49.68 12.1912 49.23Z" sodipodi:nodetypes="czzczczzzzcc"/><path id="shape22" transform="translate(34.5599985374791, 69.3599970648021)" fill="none" stroke="#262626" stroke-width="0.48" stroke-linecap="square" stroke-linejoin="bevel" d="M0 20.46C1.86 22.32 3.24 23.1 4.14 22.8C5.04 22.5 5.43 22.32 5.31 22.26L11.97 35.76C16.35 40.6 18.87 43.17 19.53 43.47C20.19 43.77 22.23 45.16 25.65 47.64C26.13 48.66 26.88 49.44 27.9 49.98C28.92 50.52 30.06 51.12 31.32 51.78L42.3 51.42L51.21 47.82C52.83 46.86 54.93 46.29 57.51 46.11C61.38 45.84 65.829 41.5965 69.36 38.91C71.714 37.119 76.064 36.699 82.41 37.65C85.73 38.55 87.69 38.67 88.29 38.01C88.89 37.35 89.19 36.87 89.19 36.57C88.35 35.31 87.81 34.35 87.57 33.69C87.33 33.03 86.76 32.55 85.86 32.25L85.59 32.97C84.63 30.57 83.82 29.28 83.16 29.1C82.5 28.92 79.5 26.38 74.16 21.48C72.2 17.84 71.1 15.58 70.86 14.7C70.62 13.82 70.16 12.46 69.48 10.62L69.66 6.66C66.58 4.9 64.6 3.72 63.72 3.12C62.84 2.52 61.62 1.48 60.06 0" sodipodi:nodetypes="czcczczccczzczczcczczcczc"/><path id="shape23" transform="translate(94.9499988277245, 48.4199979509602)" fill="#424242" fill-rule="evenodd" stroke="none" stroke-width="1" stroke-linecap="square" stroke-linejoin="bevel" d="M0 20.82L1.53 14.37L4.35 4.32L5.04 2.28L6.9 0C7.52 1.3 7.91 2.36 8.07 3.18C8.31 4.41 8.67 6.09 8.25 6.45C7.97 6.69 7.9 6.84 8.04 6.9C8.18 6.3 8.44 6.3 8.82 6.9C9.39 7.8 10.71 9.51 11.37 9.63C12.03 9.75 17.97 13.92 18.18 14.4C18.39 14.88 20.31 17.28 20.25 19.26C20.21 20.58 20.87 24.76 22.23 31.8L25.29 46.38C25.73 48.18 26.09 49.1 26.37 49.14C26.79 49.2 27.87 49.26 29.67 49.62C30.87 49.86 33.19 51.56 36.63 54.72L36.24 55.35C36.3 55.83 36.53 56.23 36.93 56.55C37.33 56.87 39.73 58.3 44.13 60.84L60.99 65.49L98.82 75.015L111.42 78.075C116.85 79.56 122.473 80.078 127.71 82.53L134.37 85.77C136.248 86.6592 137.568 87.3792 138.33 87.93C139.092 88.4808 140.922 88.8408 143.82 89.01L143.46 90.54L140.67 90.36L135.18 87.84C123.42 82.98 116.91 80.49 115.65 80.37C113.76 80.19 105.668 77.7712 103.77 77.22C102.504 76.8525 100.914 76.4025 99 75.87L88.2 73.935C77.82 72.345 72.3 71.445 71.64 71.235C70.65 70.92 34.47 62.88 33.63 61.98C33.07 61.38 31.23 60.5 28.11 59.34L29.01 57.72L27.33 54.3L25.77 52.98L24.99 53.4C24.79 52.56 24.51 51.92 24.15 51.48C23.79 51.04 23.01 50.2 21.81 48.96C19.7124 47.7681 18.0724 46.5881 16.89 45.42C13.881 42.3069 12.5735 40.7719 12.9675 40.815C13.3615 40.8581 12.4795 38.8196 10.3215 34.6995C9.8537 33.2976 9.41571 31.6562 9.0075 29.775L9.36 27.72C8.98416 27.1015 8.22314 26.7826 7.2 25.95C6.33615 26.361 3.93615 24.651 0 20.82Z" sodipodi:nodetypes="ccccczzczzzzcczzcczcccccczcccczzcczzccccczcczccccc"/><path id="shape24" transform="translate(11.039999203794, 189.048434510448)" fill="none" stroke="#262626" stroke-width="0.48" stroke-linecap="square" stroke-linejoin="bevel" d="M0 5.89155C0.68 5.61155 1.1 5.73155 1.26 6.25155C1.5 7.03155 1.2 7.21155 2.64 6.85155C3.6 6.61155 8.56 4.57155 17.52 0.731552C18.9811 -0.103718 20.5211 -0.223718 22.14 0.371552C24.5684 1.26446 31.5043 7.13547 32.04 8.23155C32.3971 8.96228 35.3771 11.0023 40.98 14.3516L52.095 21.2816L53.4 22.0016" sodipodi:nodetypes="czzczzccc"/><path id="shape25" transform="translate(18.269999771343, 175.229997806921)" fill="none" stroke="#262626" stroke-width="0.48" stroke-linecap="square" stroke-linejoin="bevel" d="M0 2.16L9.18 3.96L14.22 3.42C21.66 2.68 25.86 2.16 26.82 1.86C27.78 1.56 29.4 0.94 31.68 0L36.18 1.35C44.34 1.59 48.81 2.16 49.59 3.06C50.76 4.41 50.94 5.67 53.01 6.39C54.39 6.87 56.61 8.025 59.67 9.855C65.2115 11.6354 68.6915 12.7454 70.11 13.185C72.2377 13.8444 69.93 14.58 71.37 15.75C72.33 16.53 73.14 17.16 73.8 17.64L73.89 18.36" sodipodi:nodetypes="ccczcczzczzcc"/><path id="shape26" transform="translate(56.9399958934834, 173.459987490053)" fill="none" stroke="#262626" stroke-width="0.48" stroke-linecap="square" stroke-linejoin="bevel" d="M0 3L12.06 0L18.42 3.24C20.58 3.96 21.9 4.32 22.38 4.32C22.86 4.32 23.94 4 25.62 3.36L30.54 7.38C32.02 8.06 32.86 8.54 33.06 8.82C33.36 9.24 33 9.42 34.2 9.54C35 9.62 35.62 9.98 36.06 10.62L34.92 13.62C36.2 15.82 36.92 17.18 37.08 17.7C37.24 18.22 37.32 18.64 37.32 18.96" sodipodi:nodetypes="ccczcczzcczc"/><path id="shape27" transform="translate(82.9199940198041, 175.31998735591)" fill="none" stroke="#262626" stroke-width="0.48" stroke-linecap="square" stroke-linejoin="bevel" d="M0 1.5C7.64 1.06 12.3 0.78 13.98 0.66C15.66 0.54 16.68 0.32 17.04 0L19.95 2.7C20.63 2.46 21.11 2.56 21.39 3C21.67 3.44 23.02 4.78 25.44 7.02L26.82 9.42L29.58 13.5" sodipodi:nodetypes="czcczccc"/><path id="shape28" transform="translate(59.5799957030874, 121.229991256886)" fill="none" stroke="#262626" stroke-width="0.48" stroke-linecap="square" stroke-linejoin="bevel" d="M6.12 0C8.1 3.12 9.09 5.07 9.09 5.85C9.09 6.63 8.79 8.07 8.19 10.17C7.77 10.59 7.98 11.1 8.82 11.7C9.66 12.3 10.2 13.32 10.44 14.76L9.63 18.9C9.21 23.34 8.61 25.59 7.83 25.65C7.05 25.71 5.91 26.61 4.41 28.35L3.51 31.5L2.25 38.07C2.13 42.03 2.1 44.07 2.16 44.19C2.22 44.31 1.5 45.63 0 48.15L0.9 51.57L0.81 54" sodipodi:nodetypes="czczcczccczccc"/><path id="shape29" transform="translate(60.4799992430682, 121.04999848501)" fill="none" stroke="#262626" stroke-width="0.48" stroke-linecap="square" stroke-linejoin="bevel" d="M15.57 0L14.31 5.13L15.03 7.2L12.06 8.37L10.05 14.13C10.4197 17.6188 10.9597 19.8688 11.67 20.88C12.7354 22.3968 9 27.9 7.92 29.7C7.2 30.9 5.94 34.23 4.14 39.69C2.59922 45.5071 1.66922 48.8971 1.35 49.86C1.03078 50.8229 0.580784 51.3029 0 51.3" sodipodi:nodetypes="ccccczzczc"/><path id="shape30" transform="translate(20.5799991201605, 135.599998310958)" fill="none" stroke="#262626" stroke-width="0.48" stroke-linecap="square" stroke-linejoin="bevel" d="M0 17.61L0.72 21.81L2.07 25.41L2.1 20.64L2.4 26.7L0.840001 22.2L1.44 21.6L2.16 20.46L5.46 13.2C6.82 11.6 7.56 10.42 7.68 9.66C7.8 8.9 6.96 7.64 5.16 5.88L0.540001 0" sodipodi:nodetypes="ccccccccczcc"/><path id="shape31" transform="translate(21.7199990808591, 157.439993337498)" fill="#161616" fill-rule="evenodd" stroke="none" stroke-width="9.6" stroke-linecap="square" stroke-linejoin="bevel" d="M0 0.72L0.99 0L0.96 2.4C0.682047 2.62791 0.362047 2.06791 0 0.72Z" sodipodi:nodetypes="cccc"/><path id="shape32" transform="translate(101.759995700904, 189.539991979104)" fill="none" stroke="#262626" stroke-width="0.48" stroke-linecap="square" stroke-linejoin="bevel" d="M1.47 0L0.75 4.05C0.91 5.63 0.9 6.75 0.72 7.41C0.54 8.07 0.3 8.87 0 9.81C0.666854 11.2596 1.13281 11.4033 1.65 11.88C2.43 11.28 3.48 11.31 4.8 11.97C6.12 12.63 7.47 13.05 8.85 13.23L11.46 13.68" sodipodi:nodetypes="cczcczcc"/><path id="shape33" transform="translate(164.498784891344, 124.019991055676)" fill="none" stroke="#262626" stroke-width="0.48" stroke-linecap="square" stroke-linejoin="bevel" d="M29.3612 0L31.5212 9.18C27.9212 14.22 25.1612 16.98 23.2412 17.46C21.3212 17.94 19.4612 19.68 17.6612 22.68C15.1412 29.46 13.7612 33.75 13.5212 35.55C13.2812 37.35 13.1312 39.09 13.0712 40.77L10.1912 46.17C4.19121 52.77 1.10121 56.64 0.921213 57.78C0.651213 59.49 0.261924 58.77 0.021213 60.39C-0.139261 61.47 0.610739 64.2 2.27121 68.58L6.20121 79.68L13.1012 96" sodipodi:nodetypes="cczczcczzccc"/><path id="shape34" transform="translate(122.519998466623, 155.639998052115)" fill="#585757" fill-rule="evenodd" stroke="#222222" stroke-width="0.48" stroke-linecap="square" stroke-linejoin="bevel" d="M0 0C17.6 11.12 26.4 17.52 26.4 19.2C26.4 20.88 27.44 23.24 29.52 26.28L41.52 29.64L42.48 27L43.44 24.36L52.56 13.8L55.2 8.76C51.04 9.48 48.12 9.92 46.44 10.08C44.76 10.24 39.28 9.84 30 8.88C27.04 11.92 24.68 12.64 22.92 11.04C21.16 9.44 15.48 6.84 5.88 3.24C5.88 3.24 3.92 2.16 0 0Z" sodipodi:nodetypes="czcccccczczcc"/><path id="shape35" transform="translate(195.493810584359, 172.709992691314)" fill="#353535" fill-rule="evenodd" stroke="#262626" stroke-width="0.48" stroke-linecap="square" stroke-linejoin="bevel" d="M38.2812 0C33.8412 1.53 31.3812 2.31 30.9012 2.34C30.4212 2.37 29.2512 2.445 27.3912 2.565L8.88118 9.315C5.25175 19.2949 3.14675 24.5799 2.56618 25.17C1.69532 26.0551 0.106175 29.73 0.226175 30.81C0.346175 31.89 -0.493825 32.73 0.466175 34.17C1.10618 35.13 2.78618 37.55 5.50617 41.43C7.46617 43.91 8.70617 45.33 9.22617 45.69C9.74617 46.05 10.7862 47.05 12.3462 48.69L25.9062 23.22L28.0662 19.35L33.4662 8.49001L34.5462 7.53001" sodipodi:nodetypes="czcczzzczccccc"/><path id="shape36" transform="translate(118.604994958122, 29.2799987609407)" fill="none" stroke="#222222" stroke-width="0.48" stroke-linecap="square" stroke-linejoin="bevel" d="M0 57.675L35.235 50.16C44.675 44.56 46.915 39.28 41.955 34.32C36.995 29.36 34.755 24.24 35.235 18.96L48.435 0" sodipodi:nodetypes="cczcc"/><path id="shape37" transform="translate(161.639988342536, 73.4399947035131)" fill="#303030" fill-rule="evenodd" stroke="#222222" stroke-width="0.48" stroke-linecap="square" stroke-linejoin="bevel" d="M0 0C3.36 14.76 5.22 23.34 5.58 25.74C5.94 28.14 12.72 31.38 25.92 35.46L38.16 47.34L43.56 49.14L44.28 47.34L33.3 39.6L26.28 35.1L10.62 28.44L5.04 24.48C5.04 24.48 3.36 16.32 0 0Z" sodipodi:nodetypes="czccccccccc"/><path id="shape38" transform="translate(161.640961099107, 66.9599991619777)" fill="#303030" fill-rule="evenodd" stroke="none" stroke-width="9.6" stroke-linecap="square" stroke-linejoin="bevel" d="M1.16904 10.08L2.33904 5.13L1.43904 0L1.34904 3.42L0.0890369 6.3C-0.185405 6.28151 0.174595 7.54151 1.16904 10.08Z" sodipodi:nodetypes="cccccc"/><path id="shape39" transform="translate(146.969993780486, 10.9799995353456)" fill="none" stroke="#272727" stroke-width="0.48" stroke-linecap="square" stroke-linejoin="bevel" d="M0 0L10.98 7.83C12.6 9.03 13.44 10.05 13.5 10.89C13.56 11.73 14.49 13.35 16.29 15.75C20.31 18.45 22.83 20.01 23.85 20.43C24.87 20.85 28.26 22.29 34.02 24.75C37.98 25.89 40.53 26.46 41.67 26.46C42.81 26.46 43.89 26.55 44.91 26.73C47.66 29.19 49.605 30.705 50.745 31.275C52.455 32.13 56.7 33.75 57.69 34.335C58.35 34.725 66.15 37.48 81.09 42.6L87.57 44.7C89.05 45.18 90.01 45.32 90.45 45.12" sodipodi:nodetypes="cczczczczzccc"/><path id="shape40" transform="translate(76.199999046347, 59.9899992492173)" fill="#7a7a7a" fill-rule="evenodd" stroke="none" stroke-width="9.6" stroke-linecap="square" stroke-linejoin="bevel" d="M0 9.97L21.6 21.73L26.4 31.09L33.6 32.17L30.72 27.85L27.24 19.09C27.476 18.4419 27.6226 17.6151 27.54 16.33C22.04 13.17 19.33 11.35 19.41 10.87C19.49 10.39 17.62 8.21 13.8 4.33L10.08 0.01C9.52 -0.07 8.6 0.33 7.32 1.21C5.4 2.53 1.92 3.25 1.8 5.53C0.0215643 7.50936 0.764936 7.8082 0 9.97Z" sodipodi:nodetypes="ccccccczcczcc"/><path id="shape41" transform="translate(76.1999990463474, 69.7199991274454)" fill="none" stroke="#2b2b2b" stroke-width="0.48" stroke-linecap="square" stroke-linejoin="bevel" d="M0 0L21.12 11.94L24.72 18L26.76 21.48L33.72 22.38" sodipodi:nodetypes="ccccc"/><path id="shape42" transform="translate(184.13999220767, 180.494992285472)" fill="none" stroke="#2b2b2b" stroke-width="0.48" stroke-linecap="square" stroke-linejoin="bevel" d="M0 37.845L12.24 25.155L29.07 20.025L34.83 19.215L33.66 13.905L24.75 11.655L20.61 1.575L24.84 0L20.925 1.62" sodipodi:nodetypes="ccccccccc"/><path id="shape43" transform="translate(164.609988128369, 164.789988115388)" fill="#505050" fill-rule="evenodd" stroke="#434343" stroke-width="0.24" stroke-linecap="square" stroke-linejoin="bevel" d="M13.05 0L30.78 12.15L39.42 17.1L0.54 21.51L0 19.44L1.89 14.85L9.72 6.21L11.61 3.24C11.61 3.24 12.09 2.16 13.05 0Z" sodipodi:nodetypes="ccccccccc"/><path id="shape44" transform="translate(7.66722167327968, 7.63499967957964)" fill="none" stroke="#262626" stroke-width="0.48" stroke-linecap="square" stroke-linejoin="bevel" d="M38.0678 221.55C38.3678 225.13 39.0378 227.24 40.0778 227.88C41.6378 228.84 39.8078 229.95 42.4478 231.03C45.0878 232.11 45.6878 232.11 47.8478 231.15C50.0078 230.19 52.5278 228.87 56.0078 230.67C58.3278 231.87 60.4878 232.27 62.4878 231.87C84.6478 231.71 96.8078 231.67 98.9678 231.75C102.208 231.87 110.968 231.39 112.768 231.03C113.968 230.79 115.648 229.71 117.808 227.79L119.608 227.91C128.848 223.67 133.988 221.11 135.028 220.23C136.068 219.35 136.928 216.91 137.608 212.91L137.008 208.59L137.953 212.61C139.813 212.91 141.343 213.12 142.543 213.24C143.743 213.36 152.383 213.21 168.463 212.79L174.178 212.07C175.558 211.47 177.103 211.365 178.813 211.755C181.378 212.34 190.438 214.08 190.918 214.41C191.238 214.63 192.588 215.08 194.968 215.76C196.088 215.62 197.068 215.39 197.908 215.07C199.168 214.59 200.548 213.63 200.998 213.84C201.448 214.05 204.53 214.23 205.025 213.892C205.52 213.555 213.193 211.8 215.105 211.822C216.38 211.837 217.138 211.9 217.378 212.01C217.698 211.07 217.903 210.39 217.993 209.97C218.128 209.34 219.733 204.945 219.553 204.09C219.433 203.52 218.978 201.74 218.188 198.75L214.618 191.67C214.238 190.55 214.068 189.68 214.108 189.06C214.168 188.13 215.898 183.955 216.448 183.36C216.997 182.765 221.186 174.069 222.118 173.025C222.739 172.329 224.149 169.704 226.348 165.15C227.298 164.63 227.953 164.25 228.313 164.01C228.673 163.77 228.943 162.825 229.123 161.175C230.163 153.105 230.593 148.605 230.413 147.675C230.143 146.28 230.653 136.11 230.563 134.805C230.473 133.5 230.773 131.355 230.983 131.1C231.193 130.845 231.178 129.045 231.118 128.355C231.078 127.895 231.228 124.5 231.568 118.17L231.748 115.71C231.668 109.07 231.608 105.53 231.568 105.09C231.528 104.65 231.248 99.39 230.728 89.31L229.648 75.51L228.988 69.03L227.218 63.72L228.268 57.9C228.914 54.44 229.394 52.33 229.708 51.57C230.178 50.43 230.683 47.46 231.418 46.965C232.152 46.47 231.613 46.14 231.568 45.51C231.538 45.09 231.173 43.61 230.473 41.07C229.29 40.5635 228.455 40.0835 227.968 39.63C227.48 39.1765 226.59 38.9265 225.298 38.88C223.258 36.08 222.198 34.11 222.118 32.97C221.998 31.26 221.63 31.32 221.015 30.9375C220.4 30.555 206.668 23.295 205.948 22.89C205.228 22.485 195.553 17.49 194.968 17.4C194.578 17.34 186.343 13.3225 170.263 5.3475L160.198 1.71C157.298 0.67 155.678 0.2 155.338 0.3C154.998 0.4 153.388 0.3 150.508 0L138.748 3.36L130.843 7.005C127.663 8.115 125.293 9.27 123.733 10.47C122.173 11.67 119.158 14.43 114.688 18.75L108.793 26.265L107.803 27.48L106.183 27.255C105.583 27.795 104.968 28.365 104.338 28.965C103.708 29.565 100.508 33.3 94.7378 40.17C94.4478 40.24 94.2128 40.465 94.0328 40.845C93.8528 41.225 93.3078 41.86 92.3978 42.75L89.3078 53.85L87.4178 61.59L82.7378 56.28L79.4378 52.725C78.9578 52.075 78.4028 51.9 77.7728 52.2C76.8278 52.65 73.9178 54.66 73.1078 54.885C72.2978 55.11 70.4078 56.685 69.5528 58.89C68.6978 61.095 68.3949 62.52 67.4228 62.655C66.4506 62.79 63.7423 64.9385 58.8728 64.455C55.6264 64.1327 52.1814 64.1177 48.5378 64.41C44.9078 65.23 42.8978 65.895 42.5078 66.405C41.9228 67.17 31.5728 76.26 30.9878 77.07C30.5978 77.61 29.2028 79.335 26.8028 82.245C24.9428 85.095 23.7428 87.495 23.2028 89.445C22.6628 91.395 21.6278 95.385 20.0978 101.415C19.5878 104.295 19.0178 106.455 18.3878 107.895C17.4428 110.055 12.8078 124.995 13.1228 126.345C13.4378 127.695 13.3028 128.685 13.0778 129.36C12.9278 129.81 12.4403 131.7 11.6153 135.03C11.3862 135.764 11.4462 136.739 11.7953 137.955C12.1444 139.171 12.5619 140.176 13.0478 140.97L12.9278 150.45L11.1428 167.565L10.7828 169.68C10.3628 169.2 10.0778 169.38 9.92778 170.22C9.77778 171.06 8.96778 172.905 7.49778 175.755L3.98778 181.83C3.56778 183.3 3.34278 184.365 3.31278 185.025C3.28278 185.685 3.32778 186.525 3.44778 187.545C3.84528 187.575 3.94278 187.729 3.74028 188.006C3.53778 188.284 2.91903 189.48 1.88403 191.595L0.537778 195.51C0.0977778 199.43 -0.0722222 201.58 0.0277778 201.96C0.177778 202.53 0.267778 206.73 0.597778 207.57C0.927778 208.41 4.77564 213.84 5.53278 213.78C6.28991 213.72 10.6129 216.435 11.7428 216.555C12.4961 216.635 15.8311 216.9 21.7478 217.35C26.7478 217.63 29.6878 217.93 30.5678 218.25C31.4478 218.57 33.5878 219.2 36.9878 220.14C37.4078 220.24 37.5878 220.47 37.5278 220.83C37.4678 221.19 37.3778 221.41 37.2578 221.49C37.4978 221.55 37.7678 221.57 38.0678 221.55Z" sodipodi:nodetypes="czzzzczzcczccczcczzczzzzczzcczzzczczzzzcczccccczzzczczzzzcczccczcccczczccccczzzzzczzczczzzczcccczcczczcczzzzczczcc"/>
</svg>
